<svg xmlns="http://www.w3.org/2000/svg" width="14" height="18.237" viewBox="0 0 14 18.237">
    <defs>
        <clipPath id="bip8u4vt5a">
            <path data-name="사각형 1745" style="fill:#5c5c5c" d="M0 0h14v18.237H0z"/>
        </clipPath>
    </defs>
    <g data-name="그룹 253" style="clip-path:url(#bip8u4vt5a)">
        <path data-name="패스 1278" d="M7 18.237a1.637 1.637 0 0 1-1.3-.686l-.013-.019-4.31-6.166-.014-.02A7.571 7.571 0 0 1 0 7a7 7 0 0 1 14 0 7.568 7.568 0 0 1-1.361 4.343l-.015.023-4.311 6.167-.013.019a1.637 1.637 0 0 1-1.3.686m-.274-1.448a.311.311 0 0 0 .549 0l4.276-6.117a.481.481 0 0 1 .037-.055A6.323 6.323 0 0 0 12.724 7 5.723 5.723 0 1 0 1.277 7a6.324 6.324 0 0 0 1.136 3.619.591.591 0 0 1 .035.052z" style="fill:#5c5c5c"/>
        <path data-name="패스 1279" d="M12.563 17.331a4.768 4.768 0 1 1 4.769-4.768 4.773 4.773 0 0 1-4.769 4.768m0-8.26a3.492 3.492 0 1 0 3.492 3.492 3.5 3.5 0 0 0-3.492-3.492" transform="translate(-5.563 -5.563)" style="fill:#5c5c5c"/>
    </g>
</svg>
