<svg xmlns="http://www.w3.org/2000/svg" width="20" height="17.622" viewBox="0 0 20 17.622">
    <defs>
        <clipPath id="8vu7bzqkka">
            <path data-name="패스 3268" d="M.652 19.973a.652.652 0 0 0 0 1.3h18.7a.652.652 0 0 0 0-1.3z" transform="translate(0 -19.973)" style="fill:#a0a0a0"/>
        </clipPath>
        <clipPath id="17ynnjy2ob">
            <path data-name="사각형 1992" style="fill:#a0a0a0" d="M0 0h20v17.622H0z"/>
        </clipPath>
    </defs>
    <g data-name="그룹 556">
        <g data-name="그룹 555" style="clip-path:url(#8vu7bzqkka)" transform="translate(0 5.844)">
            <path data-name="사각형 1991" style="fill:#a0a0a0" d="M0 0h20v1.304H0z"/>
        </g>
    </g>
    <g data-name="그룹 558">
        <g data-name="그룹 557" style="clip-path:url(#17ynnjy2ob)">
            <path data-name="패스 3269" d="M13.505 31.436h-.44a.884.884 0 0 1-.884-.884v-.44a.884.884 0 0 1 .884-.884h.44a.884.884 0 0 1 .884.884v.44a.884.884 0 0 1-.884.884" transform="translate(-8.617 -20.676)" style="fill:#a0a0a0"/>
            <path data-name="패스 3270" d="M31.728 31.436h-.44a.884.884 0 0 1-.884-.884v-.44a.884.884 0 0 1 .884-.884h.44a.884.884 0 0 1 .884.884v.44a.884.884 0 0 1-.884.884" transform="translate(-21.508 -20.676)" style="fill:#a0a0a0"/>
            <path data-name="패스 3271" d="M49.951 31.436h-.44a.884.884 0 0 1-.884-.884v-.44a.884.884 0 0 1 .884-.884h.44a.884.884 0 0 1 .884.884v.44a.884.884 0 0 1-.884.884" transform="translate(-34.399 -20.676)" style="fill:#a0a0a0"/>
            <path data-name="패스 3272" d="M13.505 43.316h-.44a.884.884 0 0 1-.884-.884v-.44a.884.884 0 0 1 .884-.884h.44a.884.884 0 0 1 .884.884v.44a.884.884 0 0 1-.884.884" transform="translate(-8.617 -29.08)" style="fill:#a0a0a0"/>
            <path data-name="패스 3273" d="M31.728 43.316h-.44a.884.884 0 0 1-.884-.884v-.44a.884.884 0 0 1 .884-.884h.44a.884.884 0 0 1 .884.884v.44a.884.884 0 0 1-.884.884" transform="translate(-21.508 -29.08)" style="fill:#a0a0a0"/>
            <path data-name="패스 3274" d="M49.951 43.316h-.44a.884.884 0 0 1-.884-.884v-.44a.884.884 0 0 1 .884-.884h.44a.884.884 0 0 1 .884.884v.44a.884.884 0 0 1-.884.884" transform="translate(-34.399 -29.08)" style="fill:#a0a0a0"/>
            <path data-name="패스 3275" d="M18.215 2.241h-1.876V.652a.652.652 0 0 0-1.3 0v1.589H4.966V.652a.652.652 0 0 0-1.3 0v1.589H1.785A1.787 1.787 0 0 0 0 4.026v11.811a1.787 1.787 0 0 0 1.785 1.785h16.43A1.787 1.787 0 0 0 20 15.837V4.026a1.787 1.787 0 0 0-1.785-1.785m.48 13.6a.481.481 0 0 1-.48.48H1.785a.481.481 0 0 1-.48-.48V4.026a.481.481 0 0 1 .48-.48h1.876v1.1a.652.652 0 0 0 1.3 0v-1.1h10.073v1.1a.652.652 0 0 0 1.3 0v-1.1h1.876a.481.481 0 0 1 .48.48z" style="fill:#a0a0a0"/>
        </g>
    </g>
</svg>
