<svg xmlns="http://www.w3.org/2000/svg" width="178.498" height="47.426" viewBox="0 0 178.498 47.426">
    <defs>
        <clipPath id="rebxqhuwfa">
            <path data-name="사각형 1993" style="fill:none" d="M0 0h178.498v47.426H0z"/>
        </clipPath>
    </defs>
    <path data-name="패스 3276" d="m112.05 50.592-3.833-16.484-3.733 16.484h-3.248l-4.459-18.683h2.361l3.692 16.646 3.834-16.646h3.187l3.875 16.666 3.692-16.666h2.34l-4.58 18.684z" transform="translate(-42.673 -14.07)" style="fill:#0477bf"/>
    <g data-name="그룹 565">
        <g data-name="그룹 564" style="clip-path:url(#rebxqhuwfa)">
            <path data-name="패스 3277" d="M142.024 47.75a12.949 12.949 0 0 0 .2 2.27 4.5 4.5 0 0 0 .545 1.5 2.014 2.014 0 0 0 .907.818 3.311 3.311 0 0 0 1.352.252 4.07 4.07 0 0 0 1.4-.211 2.756 2.756 0 0 0 .958-.575 2.466 2.466 0 0 0 .545-.928 5.378 5.378 0 0 0 .242-1.211h2.26a5.107 5.107 0 0 1-1.573 3.591 5.746 5.746 0 0 1-3.834 1.151 6.875 6.875 0 0 1-2.26-.343 3.554 3.554 0 0 1-1.655-1.19 5.785 5.785 0 0 1-1.039-2.26 14.934 14.934 0 0 1-.353-3.551 15.259 15.259 0 0 1 .333-3.461 5.954 5.954 0 0 1 1-2.27 3.755 3.755 0 0 1 1.664-1.221 6.711 6.711 0 0 1 2.351-.373 6.41 6.41 0 0 1 2.421.4 3.711 3.711 0 0 1 1.615 1.251 5.921 5.921 0 0 1 .938 2.179 17.52 17.52 0 0 1 .394 3.208v.968zm3.047-6.194a3.838 3.838 0 0 0-1.271.192 1.91 1.91 0 0 0-.907.679 3.985 3.985 0 0 0-.575 1.348 12.053 12.053 0 0 0-.293 2.118h6.134a13.076 13.076 0 0 0-.243-2.108 3.608 3.608 0 0 0-.545-1.338 1.967 1.967 0 0 0-.929-.689 4.094 4.094 0 0 0-1.372-.2" transform="translate(-61.611 -17.523)" style="fill:#0477bf"/>
            <path data-name="패스 3278" d="M173.18 41.172a29.57 29.57 0 0 1 .313-4.752 7.361 7.361 0 0 1 1.059-2.955 3.91 3.91 0 0 1 1.957-1.493 9.255 9.255 0 0 1 3.027-.424 6.561 6.561 0 0 1 2.723.49 4.644 4.644 0 0 1 1.715 1.288 5.151 5.151 0 0 1 .939 1.833 13.077 13.077 0 0 1 .414 2.119h-2.28a9.809 9.809 0 0 0-.373-1.684 3.165 3.165 0 0 0-.635-1.14 2.492 2.492 0 0 0-1.039-.646 4.879 4.879 0 0 0-1.5-.2 6.8 6.8 0 0 0-1.886.223 2.108 2.108 0 0 0-1.221.988 6.047 6.047 0 0 0-.666 2.27 32.1 32.1 0 0 0-.2 4.066 31.865 31.865 0 0 0 .2 4.045 5.972 5.972 0 0 0 .686 2.29 2.132 2.132 0 0 0 1.23 1.019 6.614 6.614 0 0 0 1.9.233 4.806 4.806 0 0 0 1.554-.222 2.456 2.456 0 0 0 1.069-.706 3.537 3.537 0 0 0 .656-1.3 10.351 10.351 0 0 0 .333-1.967h2.26a12.184 12.184 0 0 1-.383 2.34 5.869 5.869 0 0 1-.948 2 4.7 4.7 0 0 1-1.755 1.4 6.377 6.377 0 0 1-2.744.519 9.5 9.5 0 0 1-3.078-.424 3.874 3.874 0 0 1-1.967-1.513 7.259 7.259 0 0 1-1.049-2.946 30.412 30.412 0 0 1-.3-4.742" transform="translate(-76.363 -13.911)" style="fill:#0477bf"/>
            <path data-name="패스 3279" d="M206.65 54.014v-1.231a9.9 9.9 0 0 1-1.958 1.16 5.117 5.117 0 0 1-2.078.434 4.408 4.408 0 0 1-1.735-.3 2.945 2.945 0 0 1-1.15-.848 3.49 3.49 0 0 1-.635-1.362 6.4 6.4 0 0 1-.152-1.765 4.58 4.58 0 0 1 .555-2.18 3.972 3.972 0 0 1 1.5-1.453 7.58 7.58 0 0 1 2.391-.837 21.152 21.152 0 0 1 3.259-.333v-1.13a7.365 7.365 0 0 0-.091-1.221 2.268 2.268 0 0 0-.353-.917 1.632 1.632 0 0 0-.736-.555 3.357 3.357 0 0 0-1.241-.192 2.529 2.529 0 0 0-1.664.524 2.942 2.942 0 0 0-.858 1.836h-2.32a5.151 5.151 0 0 1 .484-1.867 3.317 3.317 0 0 1 1.029-1.221 4.113 4.113 0 0 1 1.493-.676 8.092 8.092 0 0 1 1.916-.212 7.046 7.046 0 0 1 2.23.3 3.954 3.954 0 0 1 1.442.807 2.873 2.873 0 0 1 .777 1.16 3.983 3.983 0 0 1 .233 1.342v10.737zm-3.531-1.251a4.471 4.471 0 0 0 1.664-.343 10.643 10.643 0 0 0 1.867-1.009v-4.4a22.135 22.135 0 0 0-2.23.212 6.111 6.111 0 0 0-1.685.474 2.6 2.6 0 0 0-1.08.917 2.641 2.641 0 0 0-.373 1.463 3.547 3.547 0 0 0 .424 2.088 1.646 1.646 0 0 0 1.413.6" transform="translate(-87.72 -17.491)" style="fill:#0477bf"/>
            <path data-name="패스 3280" d="m224.6 40.106-.02 1.191a9.828 9.828 0 0 1 2.078-1.168 5.427 5.427 0 0 1 2-.389 4.6 4.6 0 0 1 1.483.243 3.81 3.81 0 0 1 1.261.706 3.637 3.637 0 0 1 .878 1.2 3.957 3.957 0 0 1 .333 1.685v10.472h-2.341V43.82a2.4 2.4 0 0 0-.543-1.648 2.055 2.055 0 0 0-1.627-.616 4.639 4.639 0 0 0-1.739.343 11.285 11.285 0 0 0-1.76.91v11.237h-2.341v-13.94z" transform="translate(-98.006 -17.523)" style="fill:#0477bf"/>
            <path data-name="패스 3281" d="M254.816 31.729h10.553v2.623h-1.513v12.913h1.513v2.623h-10.553v-2.623h1.513V34.352h-1.513zm4.419 15.536h1.716V34.352h-1.716zm8.575-15.536h2.905v18.159h-2.905z" transform="translate(-112.361 -13.991)" style="fill:#10468c"/>
            <path data-name="패스 3282" d="M302.176 23.078a3.784 3.784 0 0 1 1.446-1.532 4.717 4.717 0 0 1 3.675-.384.364.364 0 0 0 .283-.021 3.615 3.615 0 0 1 .559-.226 7.464 7.464 0 0 1 2.609-.093c0 .017 0 .023-.006.026l-.21.173a2.587 2.587 0 0 0-.874 1.172c-.064.191-.112.369.119.485.021.011.036.035.054.053a6.626 6.626 0 0 1 1.189 7.609l-.008.015a6.358 6.358 0 0 1-.084.164.407.407 0 0 1-.074.1 4.135 4.135 0 0 1-1.43 1.312h-.007a6.766 6.766 0 0 1-2.722 1.09.521.521 0 0 1 .07-.049 4.521 4.521 0 0 0 .978-.524 1.975 1.975 0 0 0 .916-1.213 2.965 2.965 0 0 0-.178-1.933 2.549 2.549 0 0 0-.6-.791 3.179 3.179 0 0 0-.431-.32c-.083-.051-.427-.3-.518-.272a.2.2 0 0 1 .046-.015c.04 0 .08 0 .121.006a2.6 2.6 0 0 1 1.314.536c.243.181.467.386.711.564a.87.87 0 0 0 1.265-.15 1.8 1.8 0 0 0 .409-.945 1.86 1.86 0 0 0-1.893-2.243 1.293 1.293 0 0 0-1.33 1.328c0 .129.013.257.021.414a2.752 2.752 0 0 1-.938-2.293l-.191-.018a8.976 8.976 0 0 1-2.291-.462 4.368 4.368 0 0 1-1.965-1.361c-.049-.06-.084-.107-.035-.2" transform="translate(-133.234 -9.151)" style="fill:#10468c"/>
            <path data-name="패스 3283" d="M310.539 42.65v4.179h2.905v-5.105c-.1.044-.183.094-.287.135a8.484 8.484 0 0 1-2.618.792" transform="translate(-136.931 -18.398)" style="fill:#10468c"/>
            <path data-name="패스 3284" d="M302.036 53.4a3.509 3.509 0 0 0-1.311-.575 7.218 7.218 0 0 0-1.544-.161h-7.769a7.206 7.206 0 0 0-1.543.161 3.5 3.5 0 0 0-1.312.575 2.913 2.913 0 0 0-.919 1.13 5.117 5.117 0 0 0 0 3.682 2.608 2.608 0 0 0 .919 1.08 3.52 3.52 0 0 0 1.322.5 8.8 8.8 0 0 0 1.533.131h7.769a8.82 8.82 0 0 0 1.534-.131 3.531 3.531 0 0 0 1.322-.5 2.606 2.606 0 0 0 .917-1.08 5.109 5.109 0 0 0 0-3.682 2.91 2.91 0 0 0-.917-1.13m-2.673 3.9h-8.132q-1.028 0-1.028-.968a1.037 1.037 0 0 1 .272-.807 1.1 1.1 0 0 1 .756-.242h8.132a1.1 1.1 0 0 1 .756.242 1.035 1.035 0 0 1 .272.807q0 .968-1.029.968" transform="translate(-126.683 -23.221)" style="fill:#10468c"/>
            <path data-name="패스 3285" d="m292.383 35.925 2.219 6.5h3.067l-3.814-10.694h-2.925l-3.813 10.694h3.067z" transform="translate(-126.603 -13.99)" style="fill:#10468c"/>
            <path data-name="패스 3286" d="M48.922 8.636c.009.075 0 .155.068.212a4.042 4.042 0 0 0 .315 1.08l.139.716a25.174 25.174 0 0 1 .55 3.139c.006.114.029.286.235.2h.146l.285-.011.143-.017a13.974 13.974 0 0 0 2.558-.386c.518-.1 1.034-.2 1.554-.285.191-.031.245-.081.149-.27-.539-1.071-1.094-2.133-1.732-3.149a.228.228 0 0 0-.114-.163.15.15 0 0 0-.085-.141l-.075-.132-.064-.1-.076-.129a.775.775 0 0 0-.254-.379l-.008-.008a1.364 1.364 0 0 0-.087-.2 36.221 36.221 0 0 0-3.481-4.551 31.165 31.165 0 0 0-4.249-3.94.387.387 0 0 0-.352-.122 24.039 24.039 0 0 1 3.546 6.246c.315.789.594 1.593.889 2.39" transform="translate(-19.616)" style="fill:#10468c"/>
            <path data-name="패스 3287" d="M50.925 77.126a5.51 5.51 0 0 0-5.13-.978 13.235 13.235 0 0 0-2.968 1.226 12.4 12.4 0 0 1-3.6 1.293 8.141 8.141 0 0 1-5.326-.919 15.821 15.821 0 0 0-4.249-1.669 9.306 9.306 0 0 0-5.6.878 29.588 29.588 0 0 1-4.514 1.858 8.347 8.347 0 0 1-5.953-.6A6.9 6.9 0 0 0 9.25 77.3a3.4 3.4 0 0 0-2.019 1.121c.051.042.088.089.1.083a5.859 5.859 0 0 1 4.67.429 28.724 28.724 0 0 0 3.847 1.7c2.389.661 4.613.027 6.784-.931a18.764 18.764 0 0 1 3.824-1.409 11.094 11.094 0 0 1 6.289.845 24.2 24.2 0 0 0 3.076 1.129 8.832 8.832 0 0 0 6.422-1.149c.635-.344 1.271-.69 1.894-1.054 2.124-1.241 4.33-1.812 6.735-.872q.025-.03.049-.062" transform="translate(-3.188 -33.475)" style="fill:#0477bf"/>
            <path data-name="패스 3288" d="M54.52 27c-.618.231-.559.14-.486.785a4.678 4.678 0 0 1 .016.469q.017 1.335.03 2.669 0 .179-.008.359l-.007.072a3.47 3.47 0 0 1-.044.718c-.112.425.112.481.443.5a26 26 0 0 0 6.948-.652c.2-.045.229-.135.173-.324-.139-.467-.273-.935-.42-1.4a19.222 19.222 0 0 0-.659-1.963v.006a.752.752 0 0 0-.157-.4 18.56 18.56 0 0 0-.963-2.44c-.182-.433-.188-.42-.622-.22-1.4.645-2.8 1.279-4.244 1.818m5.4 1.2a1 1 0 0 0-.008.111l.067.155-.067-.155a1 1 0 0 1 .008-.111" transform="translate(-23.807 -11.045)" style="fill:#10468c"/>
            <path data-name="패스 3289" d="m58.1 38.394-.02.01a.716.716 0 0 0-.343.149h-.006a1.491 1.491 0 0 0-.242.062 31.187 31.187 0 0 1-5.686 1.765c-.528.12-.53.113-.568.666-.221.537-.291 1.115-.464 1.668-.286.911-.553 1.827-.892 2.719a6.518 6.518 0 0 1-1.1 2.115l.25-.07c2.067-.591 4.1-1.291 6.112-2.043a30.706 30.706 0 0 0 4.3-1.852 1.187 1.187 0 0 0 .638-1.077 17.531 17.531 0 0 0-.149-2.417 7.429 7.429 0 0 0-.24-1.438l-.022-.087a.954.954 0 0 0-.3-.148.954.954 0 0 1 .3.148c-.032-.176-.072-.351-.1-.529-.029-.226-.122-.285-.334-.179-.375.186-.756.358-1.135.536" transform="translate(-21.51 -16.671)" style="fill:#10468c"/>
            <path data-name="패스 3290" d="M48.175 69.51a7.835 7.835 0 0 0-8.733-1.857 10.327 10.327 0 0 0-1.535.675 8.022 8.022 0 0 1-7.685.081 29.048 29.048 0 0 0-3.677-1.571 10.288 10.288 0 0 0-8.062.834c-.761.4-1.511.827-2.279 1.218a6.592 6.592 0 0 1-6.204.018 10.908 10.908 0 0 0-4.311-1.242A6.033 6.033 0 0 0 0 70.6a7.112 7.112 0 0 1 2.336-1.055 9.344 9.344 0 0 1 6.312 1.01 12.91 12.91 0 0 0 3.491 1.313 8.264 8.264 0 0 0 5.479-1.01 26.355 26.355 0 0 0 1.8-1.011A8 8 0 0 1 27.2 69.4a36.807 36.807 0 0 0 4.659 1.9 7.683 7.683 0 0 0 6.388-.856 13.038 13.038 0 0 1 3.836-1.661 7.992 7.992 0 0 1 5.469.595c.174.082.356.148.535.222a1.19 1.19 0 0 1 .086-.09" transform="translate(0 -29.267)" style="fill:#0477bf"/>
            <path data-name="패스 3291" d="m55.813 45.653-1.235.763c-2.255 1.26-4.523 2.493-6.891 3.532-.87.382-1.738.769-2.617 1.129-2.165.887-4.372 1.658-6.6 2.383l-.1.033-.011.005a.483.483 0 0 0-.307.089c-.068.015-.146.008-.189.083l-.013-.02-.659.193c-.278.03-.523.216-.774.25-.808.108-1.567.4-2.355.57-1.136.251-2.265.529-3.41.736a4.69 4.69 0 0 0-1.547.328A4.9 4.9 0 0 0 27.8 57.2l-.926 1.622a6.23 6.23 0 0 0 .578-.257c.466-.236.924-.486 1.383-.735.291-.158.582-.316.875-.471a11.6 11.6 0 0 1 9.067-.932 21.1 21.1 0 0 1 3 1.237c.283.134.565.268.85.4a8.794 8.794 0 0 0 2.541.765 6.6 6.6 0 0 0 .834.055 6.037 6.037 0 0 0 .813-.055 6.347 6.347 0 0 0 2.29-.793 11.665 11.665 0 0 1 1.732-.766c.182-.067.364-.119.546-.175-.007-.029-.013-.066-.028-.079S51.344 57 51.337 57c-1.608-3.657 2.3-8.813 3.866-10.657a8.5 8.5 0 0 0 .609-.689" transform="translate(-11.85 -20.13)" style="fill:#10468c"/>
            <path data-name="패스 3292" d="M34.1 51.177c-.206-.519-.439-1.026-.661-1.539-.027-.061-.063-.106-.142-.063a.627.627 0 0 1-.134.038c-.078-.146-.078-.146.139-.275-.179-.378-.353-.761-.542-1.136-.243-.483-.486-.966-.751-1.437-.334-.6-.683-1.183-1.04-1.765-.25-.408-.513-.811-.795-1.2q-.524-.715-1.092-1.4a12.994 12.994 0 0 0-2.691-2.468 7.912 7.912 0 0 0-2.531-1.171 6.883 6.883 0 0 0-3.375 0 7.24 7.24 0 0 0-2.567 1.217c-.4.3-.748.657-1.118.99a.833.833 0 0 0-.087.111c.261-.189.5-.367.746-.541a9.42 9.42 0 0 1 1.577-.908 6.967 6.967 0 0 1 4.58-.416 5.563 5.563 0 0 1 1.285.51 8.486 8.486 0 0 1 1.5.978 13.524 13.524 0 0 1 1.652 1.633c.454.532.862 1.1 1.263 1.667a27.124 27.124 0 0 1 1.777 3.027c.025.047.042.1.075.172a1.309 1.309 0 0 0-1.373.243 1.209 1.209 0 0 0-.426.851 1.264 1.264 0 0 0 1 1.365 1.284 1.284 0 0 0 1.542-.894c.058.122.108.22.152.32q.114.262.221.528c.031.078.071.107.151.058a.322.322 0 0 1 .136-.05c.035 0 .1.018.1.04a.15.15 0 0 1-.027.129 1.392 1.392 0 0 1-.231.119c.125.314.253.615.366.921.15.4.3.806.444 1.209l1.054-.419c-.059-.15-.115-.3-.174-.452" transform="translate(-7.369 -17.002)" style="fill:#10468c"/>
            <path data-name="패스 3293" d="M14.339 55.18c-2.132-.936-2.605-2.486-1.875-4.091l.768.884a1.841 1.841 0 0 0 .168-1.153 7.2 7.2 0 0 0-.222-.808.981.981 0 0 1 .087-.774 15.416 15.416 0 0 0 .818-1.927 4.83 4.83 0 0 0-1.078-4.744.277.277 0 0 0-.359-.1 7.379 7.379 0 0 0-4.074 3.4.384.384 0 0 1-.345.226 10.35 10.35 0 0 0-.945.108.336.336 0 0 0-.236.173 4.71 4.71 0 0 0 .007 3.049 2.578 2.578 0 0 0 .41.725 1.647 1.647 0 0 1 .334.745 7.271 7.271 0 0 0 5.007 5.641 4.191 4.191 0 0 0 4.831-1.734 7.2 7.2 0 0 0 .764-1.575 2.234 2.234 0 0 0-.2-1.943 1 1 0 0 1-.049-.141 2.285 2.285 0 0 1 1.574 1.592 1.992 1.992 0 0 0-.737-1.906 2.135 2.135 0 0 0-2.151-.324 5.822 5.822 0 0 1 .514 2.153 3.614 3.614 0 0 1-5.093 3.362 6.922 6.922 0 0 1-4-7.85 7.416 7.416 0 0 1 3.943-5.115.34.34 0 0 1 .307.04 3.253 3.253 0 0 1 1.144 2.46 6.744 6.744 0 0 1-.761 3.288 21.268 21.268 0 0 0-1.08 2.453 2.845 2.845 0 0 0 .8 3.24 2.8 2.8 0 0 0 1.722.646" transform="translate(-2.998 -18.713)" style="fill:#10468c"/>
            <path data-name="패스 3294" d="M14.969 49.6a2.141 2.141 0 0 1-2.87-.508 1.634 1.634 0 0 0 1.437 1.353 1.428 1.428 0 0 0 1.432-.845" transform="translate(-5.335 -21.647)" style="fill:#10468c"/>
            <path data-name="패스 3295" d="M14.2 47.1a.378.378 0 1 0-.1-.512.365.365 0 0 0 .1.512" transform="translate(-6.188 -20.462)" style="fill:#10468c"/>
        </g>
    </g>
</svg>
