<svg xmlns="http://www.w3.org/2000/svg" width="62.976" height="55.325" viewBox="0 0 62.976 55.325">
    <g data-name="그룹 445">
        <g data-name="그룹 444">
            <path data-name="패스 3146" d="M95.276 86.921a.742.742 0 1 0 .332.995.741.741 0 0 0-.332-.995" transform="translate(-43.613 -45.827)" style="fill:#fa8928"/>
            <path data-name="패스 3147" d="m91.086 98.919-.237-.967c4.405-.338 11.993-1.834 13.6-2.7l1.342 1.288c-2.624 1.42-13.478 2.923-14.706 3.017" transform="translate(-46.233 -49.719)" style="fill:#fa8928"/>
            <path data-name="패스 3148" d="M1.262 94.5a1.1 1.1 0 0 1-.944-.545c-.864-1.4.512-6.735.882-7.476a6.726 6.726 0 0 1 2.382-1.97A7.325 7.325 0 0 1 1.3 82.935C.28 81.728.047 77.176 0 75.81a.809.809 0 0 1 .22-.581c.687-.726 1.555-.552 9.241 4.354.467.3.882.563 1.222.777a14.306 14.306 0 0 0 4.209-1.286 10.033 10.033 0 0 0-.94-2.027c-.852-1.56-1.587-2.907-.954-3.885a1.846 1.846 0 0 1 1.831-.679 26.062 26.062 0 0 1 7.992 3.008c2.485.02 9.266.3 15.274.541 4.24.173 7.9.322 9.045.338a10.722 10.722 0 0 1 4.771 1.187c.423.212.947.513 1.5.832a16.709 16.709 0 0 0 3.622 1.752c.51.113 1.119.211 1.763.315 2.4.385 4.289.69 4.174 2.082-.112 1.36-1.745 1.561-3.636 1.794l-.382.047a64.14 64.14 0 0 1-6.769.011l.07-1.61a64.558 64.558 0 0 0 6.5 0l.387-.048c.538-.067 1.2-.148 1.681-.252-.651-.173-1.615-.328-2.279-.434-.638-.1-1.3-.209-1.855-.332a17.14 17.14 0 0 1-4.078-1.929c-.533-.307-1.036-.6-1.417-.786a9.151 9.151 0 0 0-4.076-1.018c-1.164-.017-4.835-.166-9.087-.34-5.91-.241-13.265-.54-15.47-.54a.809.809 0 0 1-.483-.161c-2.011-1.509-6.848-2.8-7.373-2.852a1.667 1.667 0 0 0-.328 0 9.7 9.7 0 0 0 .991 2.186c.855 1.568 1.825 3.345.469 4.121-.042.024-4.618 2.2-5.946 1.368-.353-.221-.795-.5-1.295-.823-1.69-1.079-5.28-3.37-6.933-4.144.142 2.278.487 4.645.869 5.1a9.369 9.369 0 0 0 3.177 1.763.806.806 0 0 1 .093 1.479A11.7 11.7 0 0 0 2.64 87.2a20.272 20.272 0 0 0-1 5.619c1.591-.5 5.3-3.6 6.955-4.988a43.68 43.68 0 0 1 1.469-1.2c1.013-.764 6.536.1 8.618.48v1.546c-2.231-.411-7.15-.971-7.684-.717-.256.2-.772.628-1.371 1.128C6.2 91.928 2.988 94.5 1.262 94.5z" transform="translate(0 -39.173)" style="fill:#fa8928"/>
            <path data-name="패스 3155" d="M54.549 103.2a19.507 19.507 0 0 1-3.789-.348l.388-1.572a20.716 20.716 0 0 0 7.916-.151l.388 1.572a24.968 24.968 0 0 1-4.9.5" transform="translate(-23.5 -52.441)" style="fill:#fa8928"/>
            <path data-name="패스 3156" d="m36.07 82.456-.894-1.34a24.305 24.305 0 0 0 3.1-2.585l1.139 1.14a25.64 25.64 0 0 1-3.345 2.786" transform="translate(-16.285 -41.979)" style="fill:#fa8928"/>
        </g>
        <path data-name="패스 3135" d="M36.261 39.5a2.733 2.733 0 0 1-2.72-2.434l-.048-.433A2.373 2.373 0 0 1 35.852 34h.321v1.43h-.321a.942.942 0 0 0-.937 1.047l.048.433a1.306 1.306 0 0 0 1.3 1.162z" transform="translate(-13.979 -17.797)" style="fill:#333"/>
        <path data-name="패스 3136" d="M79.839 39.5v-1.43a1.306 1.306 0 0 0 1.3-1.162l.048-.433a.942.942 0 0 0-.937-1.047h-.27V34h.27a2.373 2.373 0 0 1 2.359 2.634l-.048.432a2.733 2.733 0 0 1-2.72 2.434" transform="translate(-38.245 -17.797)" style="fill:#333"/>
        <path data-name="패스 3137" d="M38.511 66.369 38 65.034c2.668-1.02 4.114-2.008 4.114-4.3V60.5h1.43v.236c0 3.421-2.6 4.7-5.033 5.634" transform="translate(-16.345 -31.667)" style="fill:#333"/>
        <path data-name="패스 3138" d="M80.023 68.119a27.121 27.121 0 0 0-4.546-2.074c-2.6-.946-5.845-2.124-5.845-5.936V59.3h1.43v.805c0 2.615 1.941 3.516 4.9 4.592a28.384 28.384 0 0 1 4.785 2.188z" transform="translate(-32.902 -31.041)" style="fill:#333"/>
        <path data-name="패스 3139" d="M57.993 40.578h-.646a.715.715 0 1 1 0-1.43h.646a.546.546 0 0 0 .545-.545V35.21c0-2.306 1.087-3.162 2.105-3.194C61.142 32 62.988 32 63.066 32a.715.715 0 1 1 0 1.43c-.019 0-1.9 0-2.378.015-.424.014-.72.74-.72 1.765v3.39a1.977 1.977 0 0 1-1.975 1.975" transform="translate(-26.098 -16.75)" style="fill:#333"/>
        <path data-name="패스 3140" d="M48.413 46.609c-4.43 0-9.781-4.8-9.781-10.752V30.8h1.43v5.058c0 5.164 4.569 9.322 8.351 9.322 3.546 0 8.805-3.846 8.805-9.159V29.25h1.43v6.77c0 5.866-5.6 10.588-10.235 10.588" transform="translate(-16.676 -15.31)" style="fill:#333"/>
        <path data-name="패스 3141" d="M49.73 33.43h-2.383a.715.715 0 1 1 0-1.43h2.383a.715.715 0 0 1 0 1.43" transform="translate(-20.863 -16.75)" style="fill:#333"/>
        <path data-name="패스 3157" d="M49.73 33.43h-2.383a.715.715 0 1 1 0-1.43h2.383a.715.715 0 0 1 0 1.43" transform="translate(-16.336 -6.171)" style="fill:#333"/>
        <path data-name="패스 3142" d="M49.79 36.239a.905.905 0 1 0 .905.905.906.906 0 0 0-.905-.905" transform="translate(-22.043 -18.969)" style="fill:#333"/>
        <path data-name="패스 3143" d="M66.809 36.239a.905.905 0 1 0 .905.905.906.906 0 0 0-.905-.905" transform="translate(-30.951 -18.969)" style="fill:#333"/>
        <path data-name="패스 3149" d="M51.394 71.195c-3.125 0-6.354-.671-8.217-2l.831-1.164c3.126 2.233 11.3 2.349 13.881.2l.915 1.1c-1.5 1.251-4.408 1.872-7.41 1.872" transform="translate(-19.055 -35.608)" style="fill:#333"/>
        <path data-name="패스 3150" d="M57.433 14.3H31.222a.715.715 0 0 1-.538-1.185L33.9 9.44l1.359-6.459A3.772 3.772 0 0 1 38.931 0h10.794A3.772 3.772 0 0 1 53.4 2.981l1.358 6.459 3.213 3.672a.714.714 0 0 1-.538 1.185M32.8 12.867h23.058l-2.3-2.627a.707.707 0 0 1-.161-.323L52 3.275a2.336 2.336 0 0 0-2.275-1.845H38.931a2.335 2.335 0 0 0-2.275 1.846l-1.217 5.779h15.045v1.43h-15.6z" transform="translate(-12.423)" style="fill:#333"/>
        <path data-name="패스 3151" d="M83.2 97.922a12.163 12.163 0 0 1-1.292-.66A4.934 4.934 0 0 1 80.33 95a.7.7 0 0 1-.039-.185 11.511 11.511 0 0 1 .133-2.615 7.2 7.2 0 0 0-3.2-2.077l.37-1.381c1.379.37 4.567 2.231 4.246 3.662a9.5 9.5 0 0 0-.13 2.214 3.443 3.443 0 0 0 .977 1.45c.2.13.735.384 1.119.564z" transform="translate(-36.877 -46.447)" style="fill:#333"/>
        <path data-name="패스 3152" d="m68.642 97.8-1.388-.975a8.567 8.567 0 0 1-2.411-.768c-.756-.466-4-4.085-4.175-6.18a10.115 10.115 0 0 1 1.023-4.4.632.632 0 0 1 .034-.061 2.2 2.2 0 0 1 1.887-1.019 2.078 2.078 0 0 1 1.794 1.023l1.95 3.357 1.594.969-.743 1.221-1.75-1.067a.713.713 0 0 1-.247-.252l-2.041-3.515a.665.665 0 0 0-.577-.311.732.732 0 0 0-.634.312 8.664 8.664 0 0 0-.866 3.623c.125 1.5 2.952 4.743 3.5 5.081a7.853 7.853 0 0 0 2.063.605.715.715 0 0 1 .291.12l1.517 1.065z" transform="translate(-28.202 -44.174)" style="fill:#333"/>
        <path data-name="패스 3153" d="m29.727 101.457-.99-1.031c.305-.293.729-.7.879-.895a3.466 3.466 0 0 0 .458-1.687 9.5 9.5 0 0 0-.834-2.055c-.765-1.251 1.656-4.039 2.843-4.833l.795 1.189a7.2 7.2 0 0 0-2.361 2.995 11.507 11.507 0 0 1 .966 2.434.712.712 0 0 1 .023.188 4.945 4.945 0 0 1-.768 2.655 12.24 12.24 0 0 1-1.011 1.04" transform="translate(-11.497 -47.609)" style="fill:#333"/>
        <path data-name="패스 3154" d="m40.8 97.43-1.154-.844 1.094-1.5a.721.721 0 0 1 .236-.207 7.914 7.914 0 0 0 1.76-1.236c.411-.5 2.046-4.474 1.681-5.937a8.548 8.548 0 0 0-1.987-3.146.743.743 0 0 0-.7-.093.664.664 0 0 0-.446.479l-.8 3.984a.721.721 0 0 1-.153.318l-1.314 1.57-1.1-.918 1.2-1.43.766-3.805a2.077 2.077 0 0 1 1.371-1.545 2.156 2.156 0 0 1 2.116.358.691.691 0 0 1 .051.047 10.115 10.115 0 0 1 2.379 3.84c.508 2.039-1.4 6.51-1.968 7.194a8.6 8.6 0 0 1-2.035 1.5z" transform="translate(-16.3 -43.438)" style="fill:#333"/>
    </g>
</svg>
