<svg xmlns="http://www.w3.org/2000/svg" width="37.14" height="43.396" viewBox="0 0 37.14 43.396">
    <path data-name="패스 3170" d="m38.771 6.118-.031-.044-.045.03a4.665 4.665 0 0 0-.626-2.957A5.445 5.445 0 0 0 34.6 1.25a5.443 5.443 0 0 0 .48 3.92 3.613 3.613 0 0 0 .9.906 1.382 1.382 0 0 1 .143 2.124 15.285 15.285 0 0 0-4.67 7.83c-1.16 6.046 3.083 11.943 3.083 11.943s6.125-3.907 7.286-9.953a15.279 15.279 0 0 0-1.438-9A1.382 1.382 0 0 1 41.3 7.1a3.611 3.611 0 0 0 1.172-.507 5.445 5.445 0 0 0 1.9-3.464 5.445 5.445 0 0 0-3.92.48 4.662 4.662 0 0 0-1.676 2.514" transform="translate(-12.359 -.35)" style="fill:#9db6c5"/>
    <path data-name="패스 3171" d="m38.771 6.118-.031-.044-.045.03a4.665 4.665 0 0 0-.626-2.957A5.445 5.445 0 0 0 34.6 1.25a5.443 5.443 0 0 0 .48 3.92 3.613 3.613 0 0 0 .9.906 1.382 1.382 0 0 1 .143 2.124 15.285 15.285 0 0 0-4.67 7.83c-1.16 6.046 3.083 11.943 3.083 11.943s6.125-3.907 7.286-9.953a15.279 15.279 0 0 0-1.438-9A1.382 1.382 0 0 1 41.3 7.1a3.611 3.611 0 0 0 1.172-.507 5.445 5.445 0 0 0 1.9-3.464 5.445 5.445 0 0 0-3.92.48 4.662 4.662 0 0 0-1.681 2.509z" transform="translate(-12.359 -.35)" style="stroke-linecap:round;stroke-linejoin:round;stroke-width:1.8px;stroke:#fa8928;fill:#fff7ef"/>
    <path data-name="패스 3172" d="m28.61 30.466.05.02.022-.049a4.664 4.664 0 0 0 2.118 2.155 5.442 5.442 0 0 0 3.941-.263 5.445 5.445 0 0 0-2.514-3.047A3.6 3.6 0 0 0 30.98 29a1.382 1.382 0 0 1-1.256-1.714 15.285 15.285 0 0 0-.276-9.113c-2.274-5.722-9.024-8.41-9.024-8.41s-3.062 6.588-.788 12.31a15.285 15.285 0 0 0 6.055 6.816A1.382 1.382 0 0 1 25.955 31a3.611 3.611 0 0 0-.715 1.058A5.445 5.445 0 0 0 25.5 36a5.444 5.444 0 0 0 3.047-2.514 4.663 4.663 0 0 0 .06-3.021" transform="translate(-7.373 -3.759)" style="stroke:#fa8928;fill:#fff7ef"/>
    <path data-name="패스 3173" d="m28.61 30.466.05.02.022-.049a4.664 4.664 0 0 0 2.118 2.155 5.442 5.442 0 0 0 3.941-.263 5.445 5.445 0 0 0-2.514-3.047A3.6 3.6 0 0 0 30.98 29a1.382 1.382 0 0 1-1.256-1.714 15.285 15.285 0 0 0-.276-9.113c-2.274-5.722-9.024-8.41-9.024-8.41s-3.062 6.588-.788 12.31a15.285 15.285 0 0 0 6.055 6.816A1.382 1.382 0 0 1 25.955 31a3.611 3.611 0 0 0-.715 1.058A5.445 5.445 0 0 0 25.5 36a5.444 5.444 0 0 0 3.047-2.514 4.663 4.663 0 0 0 .063-3.02z" transform="translate(-7.373 -3.759)" style="fill:none;stroke:#333;stroke-linecap:round;stroke-linejoin:round;stroke-width:1.8px"/>
    <path data-name="패스 3174" d="M29.105 51.763H14.017a3.611 3.611 0 0 1-3.582-3.154l-2.551-20a4.509 4.509 0 0 1 4.473-5.079h18.408a4.509 4.509 0 0 1 4.472 5.079l-2.551 20a3.61 3.61 0 0 1-3.582 3.154" transform="translate(-2.991 -9.267)" style="fill:#fff7ef"/>
    <path data-name="패스 3175" d="M29.105 51.763H14.017a3.611 3.611 0 0 1-3.582-3.154l-2.551-20a4.509 4.509 0 0 1 4.473-5.079h18.408a4.509 4.509 0 0 1 4.472 5.079l-2.551 20a3.61 3.61 0 0 1-3.581 3.154z" transform="translate(-2.991 -9.267)" style="fill:none;stroke:#333;stroke-linecap:round;stroke-linejoin:round;stroke-width:1.8px"/>
    <path data-name="패스 3176" d="M4.512 27.583H1.25c0 6.567 7.911 11.892 17.67 11.892s17.67-5.325 17.67-11.892h-3.262" transform="translate(-.349 -10.891)" style="fill:none;stroke:#333;stroke-linecap:round;stroke-linejoin:round;stroke-width:1.8px"/>
    <path data-name="패스 3177" d="M31.139 48.031H21.106a1.864 1.864 0 0 1 0-3.727h10.033a1.864 1.864 0 0 1 0 3.727" transform="translate(-7.552 -17.584)" style="fill:#fff7ef"/>
    <path data-name="패스 3178" d="M31.139 48.031H21.106a1.864 1.864 0 0 1 0-3.727h10.033a1.864 1.864 0 0 1 0 3.727z" transform="translate(-7.552 -17.584)" style="fill:none;stroke:#333;stroke-linecap:round;stroke-linejoin:round;stroke-width:1.8px"/>
    <path data-name="패스 3179" d="M25.337 28.392H7.5a2.432 2.432 0 1 1 0-4.864h25.9a2.432 2.432 0 0 1 0 4.864h-4.3" transform="translate(-1.876 -9.268)" style="fill:#fff7ef"/>
    <path data-name="패스 3180" d="M25.337 28.392H7.5a2.432 2.432 0 1 1 0-4.864h25.9a2.432 2.432 0 0 1 0 4.864h-4.3" transform="translate(-1.876 -9.268)" style="fill:none;stroke:#333;stroke-linecap:round;stroke-linejoin:round;stroke-width:1.8px"/>
</svg>
