<svg width="86" height="106" viewBox="0 0 86 106" fill="none" xmlns="http://www.w3.org/2000/svg">
    <path d="M43.123 8c-16.506 0-29.92 13.394-29.92 29.876v14.39c0 3.037-1.297 7.668-2.843 10.257l-5.734 9.51c-3.541 5.876-1.098 12.398 5.385 14.59a104.478 104.478 0 0 0 66.175 0c6.033-1.992 8.676-9.113 5.385-14.59l-5.735-9.51c-1.496-2.59-2.792-7.22-2.792-10.257v-14.39C73.044 21.444 59.58 8 43.124 8z" stroke="#EFEFEF" stroke-width="6" stroke-miterlimit="10" stroke-linecap="round"/>
    <path d="M52 9a30.009 30.009 0 0 0-4.67-.952C42.66 7.476 38.184 7.81 34 9c1.41-3.524 4.913-6 9-6s7.59 2.476 9 6z" stroke="#EFEFEF" stroke-width="6" stroke-miterlimit="10" stroke-linecap="round" stroke-linejoin="round"/>
    <path d="M58 88c0 8.25-6.75 15-15 15-4.1 0-7.9-1.7-10.6-4.4C29.7 95.9 28 92.1 28 88" stroke="#EFEFEF" stroke-width="6" stroke-miterlimit="10"/>
</svg>
