<svg width="20" height="21" viewBox="0 0 20 21" fill="none" xmlns="http://www.w3.org/2000/svg">
    <path d="M9.986 1.64a8.739 8.739 0 0 0-3.289.64 2.958 2.958 0 0 0-.885-.85 2.891 2.891 0 0 0-2.358-.314c-.393.119-.757.32-1.069.592a2.988 2.988 0 0 0-.741.985 3.047 3.047 0 0 0 .615 3.455 9.34 9.34 0 0 0-1.182 5.787 9.257 9.257 0 0 0 2.517 5.322 8.916 8.916 0 0 0 5.173 2.65 8.824 8.824 0 0 0 5.68-1.122 9.116 9.116 0 0 0 3.834-4.428 9.362 9.362 0 0 0 .394-5.897 9.19 9.19 0 0 0-3.208-4.92 8.861 8.861 0 0 0-5.479-1.9h-.002zM1.65 3.996c-.001-.569.174-1.123.5-1.584.327-.46.787-.805 1.316-.982.53-.178 1.1-.18 1.63-.006a2.644 2.644 0 0 1 1.485 1.223 2.74 2.74 0 0 1-.05 2.791 2.66 2.66 0 0 1-1.098.998 2.592 2.592 0 0 1-2.803-.343 2.728 2.728 0 0 1-.98-2.097zm8.335 15.706a8.552 8.552 0 0 1-4.355-1.195 8.79 8.79 0 0 1-3.183-3.263 9.028 9.028 0 0 1-1.154-4.452 9.027 9.027 0 0 1 1.184-4.445 2.89 2.89 0 0 0 1.874.65 2.894 2.894 0 0 0 1.851-.714c.518-.45.865-1.07.984-1.754a3.048 3.048 0 0 0-.332-1.993 8.528 8.528 0 0 1 7.372.526 8.76 8.76 0 0 1 2.826 2.574 8.984 8.984 0 0 1 1.487 3.557 9.07 9.07 0 0 1-.133 3.865 8.954 8.954 0 0 1-1.73 3.44 8.721 8.721 0 0 1-2.995 2.365 8.542 8.542 0 0 1-3.696.839z" fill="#000" stroke="#000" stroke-width=".6"/>
    <path d="M16.306 20c1.54 0 2.79-1.276 2.79-2.85 0-1.573-1.25-2.85-2.79-2.85s-2.79 1.277-2.79 2.85c0 1.574 1.25 2.85 2.79 2.85z" fill="#231815"/>
</svg>
