<svg width="20" height="20" viewBox="0 0 20 20" fill="none" xmlns="http://www.w3.org/2000/svg">
    <path d="M15.377 18.564c1.832 0 3.317-1.513 3.317-3.379s-1.485-3.379-3.316-3.379c-1.832 0-3.317 1.513-3.317 3.38 0 1.865 1.485 3.378 3.316 3.378zM19.316 19.198l-1.037-1.056" stroke="#000" stroke-linecap="round" stroke-linejoin="round"/>
    <path d="M7.403 9.213V8.07c0-1.412.984-1.996 2.185-1.29l.967.567.967.567c1.201.706 1.201 1.864 0 2.57l-.967.567-.967.567c-1.201.706-2.185.131-2.185-1.29V9.214z" stroke="#000" stroke-miterlimit="10" stroke-linecap="round" stroke-linejoin="round"/>
    <path d="M10.335 17.428a8.25 8.25 0 1 1 7.086-7.028" stroke="#000" stroke-miterlimit="10" stroke-linecap="round"/>
</svg>
