<svg width="18" height="22" viewBox="0 0 18 22" fill="none" xmlns="http://www.w3.org/2000/svg">
    <path d="M9.025 2C5.723 2 3.04 4.679 3.04 7.975v2.878c0 .608-.26 1.534-.569 2.052l-1.147 1.902c-.708 1.175-.22 2.48 1.077 2.917a20.896 20.896 0 0 0 13.235 0 1.993 1.993 0 0 0 1.077-2.917l-1.147-1.902c-.299-.518-.558-1.444-.558-2.052V7.975C15.009 4.69 12.316 2 9.025 2z" stroke="#000" stroke-width="1.2" stroke-miterlimit="10" stroke-linecap="round"/>
    <path d="M10.8 2.2a6.708 6.708 0 0 0-3.6 0C7.482 1.495 8.182 1 9 1c.817 0 1.518.495 1.8 1.2z" stroke="#000" stroke-width="1.2" stroke-miterlimit="10" stroke-linecap="round" stroke-linejoin="round"/>
    <path d="M12 18.06c0 1.65-1.35 3-3 3-.82 0-1.58-.34-2.12-.88A3.01 3.01 0 0 1 6 18.06" stroke="#000" stroke-width="1.2" stroke-miterlimit="10"/>
</svg>
