<svg xmlns="http://www.w3.org/2000/svg" width="60" height="60" viewBox="0 0 60 60">
    <circle data-name="타원 29" cx="30" cy="30" r="30" style="fill:#fff"/>
    <g data-name="그룹 468">
        <path data-name="패스 3158" d="m52.591 21.175-2.248-.652-1.314-1.937a.932.932 0 0 0-1.542 0l-1.314 1.937-2.248.652a.932.932 0 0 0-.477 1.466l1.436 1.849-.075 2.339a.932.932 0 0 0 1.247.906l2.2-.794 2.2.794a.932.932 0 0 0 1.248-.906l-.075-2.339 1.436-1.849a.932.932 0 0 0-.476-1.466m-2.637 2.437a.932.932 0 0 0-.2.6l.042 1.3-1.227-.443a.933.933 0 0 0-.632 0l-1.227.443.042-1.3a.932.932 0 0 0-.2-.6l-.8-1.03 1.252-.363a.933.933 0 0 0 .512-.372l.732-1.079.732 1.079a.933.933 0 0 0 .512.372l1.253.363z" transform="translate(-18.177 3.056)" style="fill:#333"/>
        <path data-name="패스 3159" d="M29.05 3.677a3.057 3.057 0 0 0-2.37-.665 4.144 4.144 0 0 0-1.888.861V1.864h1.08a.932.932 0 0 0 0-1.863H4.288a.932.932 0 1 0 0 1.863h1.08v2.008a4.146 4.146 0 0 0-1.889-.861 3.072 3.072 0 0 0-3.4 3.806C.55 9.161 2.945 11.5 5.721 12.389A8.546 8.546 0 0 0 13.9 18.5h.248v2.39H9.07a.932.932 0 0 0-.932.932v2.7H5.745a.932.932 0 1 0 0 1.863h10.422a.932.932 0 1 0 0-1.863H10v-1.77h10.158v2.7a.932.932 0 0 0 .932.932h3.325a.932.932 0 0 0 0-1.863h-2.394v-2.7a.932.932 0 0 0-.932-.932h-5.078V18.5h.248a8.546 8.546 0 0 0 8.18-6.109c2.776-.887 5.17-3.228 5.641-5.572a3.064 3.064 0 0 0-1.03-3.14M1.906 6.45a1.227 1.227 0 0 1 .352-1.306 1.191 1.191 0 0 1 .942-.289 3.668 3.668 0 0 1 1.945 1.427.916.916 0 0 0 .223.218v3.466c0 .1 0 .194.007.291A6.206 6.206 0 0 1 1.906 6.45m14.353 10.185H13.9a6.676 6.676 0 0 1-6.669-6.669v-8.1h15.7v8.1a6.677 6.677 0 0 1-6.669 6.669M28.254 6.45a6.206 6.206 0 0 1-3.469 3.807c0-.1.007-.193.007-.291V6.5a.923.923 0 0 0 .224-.22 3.689 3.689 0 0 1 1.935-1.425 1.194 1.194 0 0 1 .95.289 1.227 1.227 0 0 1 .352 1.306" transform="translate(15.001 16.999)" style="fill:#333"/>
    </g>
</svg>
