<svg width="30" height="30" viewBox="0 0 30 30" fill="none" xmlns="http://www.w3.org/2000/svg">
    <circle cx="15" cy="15" r="15" fill="#5A5858"/>
    <path fill-rule="evenodd" clip-rule="evenodd" d="M10.402 8a1.48 1.48 0 0 0-1.226.644l-3.02 4.453a.9.9 0 0 0-.058.914 27.323 27.323 0 0 0 6.756 8.503l1.473 1.241c.387.327.959.327 1.346 0l1.473-1.24a27.322 27.322 0 0 0 6.756-8.504.9.9 0 0 0-.058-.914l-3.02-4.453A1.48 1.48 0 0 0 19.598 8h-9.196zm-.175 1.332a.211.211 0 0 1 .175-.092h1.968l-1.611 3.801a1.423 1.423 0 0 0-.084.27 59.024 59.024 0 0 1-1.775-.157l-1.183-.122 2.51-3.7zM7.66 14.273a26.097 26.097 0 0 0 5.886 7.19l-2.63-6.891a60.693 60.693 0 0 1-2.15-.184l-1.106-.115zm4.633.376L15 21.739l2.706-7.09c-1.803.08-3.609.08-5.412 0zm6.789-.077-2.63 6.892a26.098 26.098 0 0 0 5.886-7.19l-1.107.114c-.715.074-1.432.135-2.149.184zm3.2-1.54-1.183.122c-.59.061-1.183.114-1.775.157a1.423 1.423 0 0 0-.084-.27l-1.611-3.8h1.969c.07 0 .136.034.174.091l2.51 3.7zm-4.26.36a59.275 59.275 0 0 1-6.045 0l1.76-4.152h2.524l1.76 4.152z" fill="#fff"/>
</svg>
