<svg width="30" height="30" viewBox="0 0 30 30" fill="none" xmlns="http://www.w3.org/2000/svg">
    <circle cx="15" cy="15" r="15" fill="#B9B9B9"/>
    <path d="M15.138 20.125v1.925" stroke="#fff" stroke-width="1.2" stroke-linecap="round" stroke-linejoin="round"/>
    <path d="M10.554 25.167h9.167v-.917a1.839 1.839 0 0 0-1.834-1.833h-5.5a1.839 1.839 0 0 0-1.833 1.833v.917z" stroke="#fff" stroke-width="1.2" stroke-miterlimit="10"/>
    <path d="M9.638 25.167h11M15 19.667a6.412 6.412 0 0 1-6.417-6.417V10.5a3.666 3.666 0 0 1 3.667-3.667h5.5a3.666 3.666 0 0 1 3.667 3.667v2.75A6.412 6.412 0 0 1 15 19.667z" stroke="#fff" stroke-width="1.2" stroke-linecap="round" stroke-linejoin="round"/>
    <path d="M9.014 15.68a4.453 4.453 0 0 1-1.769-1.1c-.825-.918-1.375-2.018-1.375-3.3a2.27 2.27 0 0 1 2.292-2.292h.596c-.184.421-.275.889-.275 1.375v2.75c0 .916.192 1.778.531 2.566zM20.986 15.68a4.454 4.454 0 0 0 1.769-1.1c.825-.918 1.375-2.018 1.375-3.3a2.27 2.27 0 0 0-2.292-2.292h-.596c.184.421.275.889.275 1.375v2.75a6.46 6.46 0 0 1-.531 2.566z" stroke="#fff" stroke-width="1.2" stroke-linecap="round" stroke-linejoin="round"/>
</svg>
