<svg xmlns="http://www.w3.org/2000/svg" width="25.999" height="26.447" viewBox="0 0 25.999 26.447">
    <defs>
        <clipPath id="vhv3lizp3a">
            <path data-name="패스 3184" d="M42.982 16.054a.956.956 0 1 0 .956-.956.956.956 0 0 0-.956.956" transform="translate(-42.982 -15.098)" style="fill:#fa8928"/>
        </clipPath>
        <clipPath id="p3ggj11ucb">
            <path data-name="패스 3185" d="M49.891 16.054a.956.956 0 1 0 .956-.956.956.956 0 0 0-.956.956" transform="translate(-49.891 -15.098)" style="fill:#fa8928"/>
        </clipPath>
        <clipPath id="8w9x7y06ic">
            <path data-name="패스 3186" d="M56.8 16.054a.956.956 0 1 0 .956-.956.956.956 0 0 0-.956.956" transform="translate(-56.8 -15.098)" style="fill:#fa8928"/>
        </clipPath>
    </defs>
    <path data-name="패스 3182" d="M14.639 27.9a7.449 7.449 0 0 1-6.153-3.11L1.334 14.71A7.675 7.675 0 0 1 1.2 6.263l.823-1.349a2.153 2.153 0 0 1 1.439-.995 1.991 1.991 0 0 1 2.021.794L8.588 9.09a1.989 1.989 0 0 1 .211 1.9A2.139 2.139 0 0 1 7.2 12.3l-1.16.206 6.007 8.466.566-1.008a2.148 2.148 0 0 1 1.48-1.064 1.992 1.992 0 0 1 2.021.794l3.176 4.476a1.963 1.963 0 0 1 .221 1.878 2.143 2.143 0 0 1-1.549 1.32l-1.53.332a6.627 6.627 0 0 1-.229.046 8.459 8.459 0 0 1-1.563.147M3.854 5.528a.5.5 0 0 0-.089.009.5.5 0 0 0-.338.234L2.6 7.12a6.032 6.032 0 0 0 .072 6.637l7.152 10.08a5.961 5.961 0 0 0 6.07 2.295c.062-.012.124-.024.185-.038l1.529-.331a.5.5 0 0 0 .364-.307.333.333 0 0 0-.029-.33l-3.176-4.477a.36.36 0 0 0-.374-.129.506.506 0 0 0-.348.25l-.64 1.139a1.6 1.6 0 0 1-1.305.791 1.425 1.425 0 0 1-1.252-.577l-6.3-8.872a1.435 1.435 0 0 1-.148-1.374 1.592 1.592 0 0 1 1.19-.967l1.309-.233a.489.489 0 0 0 .365-.3.351.351 0 0 0-.027-.336L4.14 5.665a.338.338 0 0 0-.285-.137" transform="translate(0 -1.449)" style="fill:#fff"/>
    <path data-name="패스 3183" d="M38.936 14.967a6.5 6.5 0 0 1-.795-.043.823.823 0 0 1-.035-1.626 1.158 1.158 0 0 0 .744-.447 6.631 6.631 0 1 1 4.55.015c-1.058 1.836-3.272 2.1-4.464 2.1m2.21-13.322a4.985 4.985 0 0 0-.949 9.879.823.823 0 0 1 .623 1.074 4.891 4.891 0 0 1-.185.467 2.338 2.338 0 0 0 1.439-1.213.823.823 0 0 1 .512-.448 4.986 4.986 0 0 0-1.44-9.759" transform="translate(-21.777)" style="fill:#fff"/>
    <g data-name="그룹 492">
        <g data-name="그룹 491" style="clip-path:url(#vhv3lizp3a)" transform="translate(15.863 5.572)">
            <path data-name="사각형 1910" style="fill:#fa8928" d="M0 0h1.912v1.912H0z"/>
        </g>
    </g>
    <g data-name="그룹 494">
        <g data-name="그룹 493" style="clip-path:url(#p3ggj11ucb)" transform="translate(18.413 5.572)">
            <path data-name="사각형 1911" style="fill:#fa8928" d="M0 0h1.912v1.912H0z"/>
        </g>
    </g>
    <g data-name="그룹 496">
        <g data-name="그룹 495" style="clip-path:url(#8w9x7y06ic)" transform="translate(20.963 5.572)">
            <path data-name="사각형 1912" style="fill:#fa8928" d="M0 0h1.912v1.912H0z"/>
        </g>
    </g>
</svg>
