<svg width="19" height="19" viewBox="0 0 19 19" fill="none" xmlns="http://www.w3.org/2000/svg">
    <path d="M16.541 5.6A8.093 8.093 0 0 1 5.396 16.586M3.571 15.11A8.092 8.092 0 0 1 15.023 3.691M17.922 1 1 17.956" stroke="red" stroke-miterlimit="10" stroke-linecap="round"/>
    <path d="M7.173 11.21V7.746A.847.847 0 0 1 7.608 7a.845.845 0 0 1 .863.013l1.845 1.116.768-.754L9.01 6.122a1.9 1.9 0 0 0-2.882 1.623v3.465a1.9 1.9 0 0 0 .197.85l.847-.835v-.015zM11.746 9.564a.836.836 0 0 1-.406.646l-.638.387-2.551 2.512c.305-.02.602-.114.863-.273l2.866-1.732a1.904 1.904 0 0 0 .75-2.408l-.884.868z" fill="red"/>
</svg>
