<svg width="22" height="22" viewBox="0 0 22 22" fill="none" xmlns="http://www.w3.org/2000/svg">
    <path d="M18.026 12.461v-.009a4.267 4.267 0 0 0-3.118-1.344 4.301 4.301 0 0 0-4.3 4.3 4.29 4.29 0 0 0 1.102 2.867 4.284 4.284 0 0 0 3.198 1.433c2.374 0 4.3-1.926 4.3-4.3a4.26 4.26 0 0 0-1.182-2.947zm-1.514 3.673h-.932v.976a.677.677 0 0 1-.672.672.677.677 0 0 1-.671-.672v-.976h-.932a.665.665 0 0 1-.672-.672c0-.367.287-.663.663-.672h.94v-.896c0-.018 0-.035.01-.053a.665.665 0 0 1 .662-.618c.359 0 .654.286.672.645v.922h.932a.67.67 0 0 1 .672.672.665.665 0 0 1-.672.672z" fill="#000"/>
    <path d="M19.208 7.82c0 1.067-.17 2.052-.466 2.966-.053.188-.277.242-.439.125a5.685 5.685 0 0 0-3.395-1.11 5.655 5.655 0 0 0-5.644 5.643c0 .968.251 1.917.726 2.76.143.25-.027.573-.296.474-2.159-.734-6.521-3.413-7.937-7.892a9.566 9.566 0 0 1-.465-2.965c0-2.768 2.23-5.008 4.98-5.008a4.97 4.97 0 0 1 3.978 1.998 4.97 4.97 0 0 1 3.977-1.998c2.75 0 4.981 2.24 4.981 5.008z" fill="#000"/>
</svg>
