<svg width="20" height="20" viewBox="0 0 20 20" fill="none" xmlns="http://www.w3.org/2000/svg">
    <path d="M18.333 7.242A8.9 8.9 0 0 1 17.9 10c-1.317 4.167-5.375 6.658-7.383 7.342-.284.1-.75.1-1.034 0a10.64 10.64 0 0 1-1.933-.925.836.836 0 0 1-.158-1.309l9.4-9.4c.45-.45 1.241-.258 1.4.359.091.375.141.766.141 1.175zM18.775 1.225a.629.629 0 0 0-.883 0l-1.95 1.95a4.52 4.52 0 0 0-2.242-.592A4.624 4.624 0 0 0 10 4.442a4.624 4.624 0 0 0-3.7-1.859c-2.558 0-4.633 2.084-4.633 4.659 0 .991.158 1.908.433 2.758.542 1.725 1.558 3.167 2.708 4.308l-3.583 3.584a.629.629 0 0 0 0 .883.618.618 0 0 0 .442.183.618.618 0 0 0 .441-.183L18.775 2.108a.629.629 0 0 0 0-.883z" fill="#000"/>
</svg>
