<svg xmlns="http://www.w3.org/2000/svg" xmlns:xlink="http://www.w3.org/1999/xlink" width="75" height="82" viewBox="0 0 75 82">
  <defs>
    <clipPath id="clip-path">
      <rect id="사각형_2078" data-name="사각형 2078" width="75" height="82" transform="translate(535 290)" fill="#fff" opacity="0.425"/>
    </clipPath>
  </defs>
  <g id="마스크_그룹_1" data-name="마스크 그룹 1" transform="translate(-535 -290)" clip-path="url(#clip-path)">
    <g id="낚시줄" transform="translate(567.995 151.786)">
      <path id="패스_3078" data-name="패스 3078" d="M10.255-104.23V73.565a3.113,3.113,0,0,1-6.226,0V71" transform="translate(-4.029 104.23)" fill="none" stroke="#fff" stroke-linecap="round" stroke-linejoin="round" stroke-width="2.5"/>
      <path id="패스_3079" data-name="패스 3079" d="M1.25,62.637a2.779,2.779,0,1,0,2.779-2.779A2.779,2.779,0,0,0,1.25,62.637" transform="translate(2.198 104.23)" fill="#fa8928"/>
      <path id="패스_3080" data-name="패스 3080" d="M1.25,62.637a2.779,2.779,0,1,0,2.779-2.779A2.779,2.779,0,0,0,1.25,62.637Z" transform="translate(2.198 104.23)" fill="none" stroke="#fff" stroke-linecap="round" stroke-linejoin="round" stroke-width="2.5"/>
    </g>
    <g id="그룹_553" data-name="그룹 553" transform="translate(536.072 329.519)">
      <g id="그룹_554" data-name="그룹 554" transform="translate(0 0)">
        <path id="패스_3253" data-name="패스 3253" d="M50.947,61.67a7.566,7.566,0,0,0,2.2-.341.7.7,0,0,0,.219-1.234,2.185,2.185,0,0,1-.81-1.772,4.789,4.789,0,0,0-.851-2.43,5.331,5.331,0,0,0,.856-2.732,3.562,3.562,0,0,1,.881-2.394.7.7,0,0,0-.418-1.194c-1.771-.192-3.138.675-4.459,1.517-1.965,1.252-4,2.547-7.929,1.118-2.131-.775-4.218-3.019-3.873-5.294.4-2.653,3.883-5.594,9.087-7.676,4.536-1.814,10.3-4.765,11.993-8.516l-1.28-.578c-1.171,2.594-5.161,5.361-11.235,7.79-5.75,2.3-9.472,5.578-9.954,8.769-.456,3.017,2.073,5.839,4.782,6.824,4.585,1.667,7.123.046,9.164-1.254a9.366,9.366,0,0,1,2.25-1.179,6.992,6.992,0,0,0-.4,1.912,3.559,3.559,0,0,1-.881,2.394.7.7,0,0,0,0,.993,3.16,3.16,0,0,1,.879,2.115,4.607,4.607,0,0,0,.47,1.713c-1.831.227-3.285-.475-5.313-1.454a30.561,30.561,0,0,0-5.745-2.252c-5.432-1.448-14.626-6.4-14.626-15.767,0-5.921,6.273-15.443,18.051-17.922a26.366,26.366,0,0,1,10.957.256l.38-1.352a28,28,0,0,0-11.625-.278c-12.506,2.633-19.167,12.9-19.167,19.3,0,10.22,9.849,15.572,15.668,17.124a29.413,29.413,0,0,1,5.5,2.159,11.988,11.988,0,0,0,5.239,1.637" transform="translate(-22.831 -20.975)" fill="#fff"/>
        <path id="패스_3254" data-name="패스 3254" d="M48.27,35.348l.2-1.39c-2.8-.4-5.065-3.131-5.39-3.793-1.464-2.983,1.481-6.721,1.511-6.758l-1.1-.878c-.145.182-3.527,4.48-1.675,8.254a10.045,10.045,0,0,0,6.452,4.565" transform="translate(-21.287 -21.802)" fill="#fff"/>
        <path id="패스_3255" data-name="패스 3255" d="M71.18,40.546c.021-.088,2.061-8.646,2.947-11.424,2.042-1.452,7.326-.828,9.238-.455l.27-1.377c-.787-.155-7.784-1.442-10.557.87a.7.7,0,0,0-.217.317c-.865,2.6-2.958,11.372-3.046,11.744Z" transform="translate(-69.814 -24.07)" fill="#fff"/>
        <path id="패스_3256" data-name="패스 3256" d="M36.362,26.175a.737.737,0,1,1-.737.737.737.737,0,0,1,.737-.737" transform="translate(-7.278 -23.741)" fill="#fff"/>
        <path id="패스_3257" data-name="패스 3257" d="M50.382,48.157c3,0,4.509-3.577,4.576-3.741l-1.3-.534.649.267-.649-.268c-.014.033-1.39,3.272-3.765,2.824-.786-.149-.941-.5-.988-.792a3.654,3.654,0,0,1,1.172-2.652l-.63-1.255a4.786,4.786,0,0,0-1.937,4.074,2.341,2.341,0,0,0,2.12,2,4,4,0,0,0,.748.072" transform="translate(-30.69 -32.163)" fill="#fff"/>
        <path id="패스_3259" data-name="패스 3259" d="M22.89,32.174c.386-1.888,3.044-2.231,3.071-2.234a.7.7,0,0,0,.412-.2,2.329,2.329,0,0,0,.607-1.942,3.422,3.422,0,0,0-1.389-2.422l-.762,1.179a2.042,2.042,0,0,1,.755,1.391,1.186,1.186,0,0,1-.093.65c-.9.175-3.482.884-3.976,3.3Z" transform="translate(9.428 -23.316)" fill="#fff"/>
        <path id="패스_3263" data-name="패스 3263" d="M42.9,61.124a4.15,4.15,0,0,0,.755-.076c3.66-.689,3.052-5.958,3.024-6.182l-1.393.171c0,.042.479,4.185-1.89,4.63-.5.093-.863.059-1.008-.093a1.065,1.065,0,0,1-.106-.786l-1.366-.327a2.4,2.4,0,0,0,.455,2.081,2.015,2.015,0,0,0,1.529.58" transform="translate(-19.353 -39.005)" fill="#fff"/>
        <path id="패스_3264" data-name="패스 3264" d="M75.251,45.438a.7.7,0,0,0,.5-.205l.983-.983a.7.7,0,0,0-.993-.993l-.983.983a.7.7,0,0,0,.5,1.2" transform="translate(-65.332 -32.719)" fill="#fff"/>
        <path id="패스_3265" data-name="패스 3265" d="M74.2,52.787a.7.7,0,0,0,.5-.205l.983-.983a.7.7,0,1,0-.993-.993l-.983.982a.7.7,0,0,0,.5,1.2" transform="translate(-63.792 -36.629)" fill="#fff"/>
        <path id="패스_3266" data-name="패스 3266" d="M81.759,52.776a.7.7,0,0,0,.578-.3l.789-1.145a.7.7,0,0,0-1.156-.8l-.788,1.145a.7.7,0,0,0,.578,1.1" transform="translate(-74.691 -36.537)" fill="#fff"/>
        <path id="패스_3267" data-name="패스 3267" d="M47.533,34.493l.386-1.35a1.652,1.652,0,0,1-1.18-.925c-.456-1.1.293-2.873.619-3.465l-1.228-.681c-.154.278-1.483,2.766-.689,4.681a3.017,3.017,0,0,0,2.093,1.741" transform="translate(-22.573 -24.75)" fill="#fff"/>
      </g>
    </g>
  </g>
</svg>
