<svg xmlns="http://www.w3.org/2000/svg" width="150.782" height="40.854" viewBox="0 0 150.782 40.854">
    <g data-name="그룹 565">
        <path data-name="패스 3276" d="m110 48.085-3.319-14.272-3.232 14.272h-2.812l-3.86-16.176h2.044l3.2 14.412 3.319-14.412h2.76l3.355 14.429 3.2-14.429h2.026l-3.966 16.176z" transform="translate(-50.733 -16.213)" style="stroke:#25a1ef;stroke-width:.85px;fill:#25a1ef"/>
        <path data-name="패스 3277" d="M141.657 46.471a10.883 10.883 0 0 0 .17 1.907 3.779 3.779 0 0 0 .458 1.263 1.692 1.692 0 0 0 .762.687 2.782 2.782 0 0 0 1.136.211 3.42 3.42 0 0 0 1.178-.178 2.316 2.316 0 0 0 .805-.483 2.072 2.072 0 0 0 .458-.78 4.52 4.52 0 0 0 .2-1.018h1.9a4.291 4.291 0 0 1-1.322 3.018 4.828 4.828 0 0 1-3.222.967 5.777 5.777 0 0 1-1.9-.288 2.987 2.987 0 0 1-1.391-1 4.861 4.861 0 0 1-.873-1.9 12.55 12.55 0 0 1-.3-2.984 12.823 12.823 0 0 1 .28-2.908 5 5 0 0 1 .839-1.907 3.156 3.156 0 0 1 1.4-1.026 5.64 5.64 0 0 1 1.975-.314 5.387 5.387 0 0 1 2.035.34 3.118 3.118 0 0 1 1.357 1.051 4.976 4.976 0 0 1 .788 1.831 14.724 14.724 0 0 1 .331 2.7v.813zm2.56-5.2a3.226 3.226 0 0 0-1.068.162 1.6 1.6 0 0 0-.762.571 3.348 3.348 0 0 0-.483 1.133 10.13 10.13 0 0 0-.246 1.78h5.155a10.988 10.988 0 0 0-.2-1.772 3.032 3.032 0 0 0-.458-1.124 1.653 1.653 0 0 0-.78-.579 3.44 3.44 0 0 0-1.153-.171" transform="translate(-73.301 -20.07)" style="stroke:#25a1ef;stroke-width:.85px;fill:#25a1ef"/>
        <path data-name="패스 3278" d="M173.18 39.636a24.849 24.849 0 0 1 .263-3.993 6.186 6.186 0 0 1 .89-2.483 3.286 3.286 0 0 1 1.645-1.255 7.777 7.777 0 0 1 2.543-.356 5.514 5.514 0 0 1 2.288.412 3.9 3.9 0 0 1 1.441 1.082 4.329 4.329 0 0 1 .789 1.54 10.988 10.988 0 0 1 .348 1.781h-1.916a8.244 8.244 0 0 0-.314-1.416 2.66 2.66 0 0 0-.534-.958 2.094 2.094 0 0 0-.873-.542 4.1 4.1 0 0 0-1.263-.17 5.711 5.711 0 0 0-1.585.187 1.771 1.771 0 0 0-1.026.831 5.082 5.082 0 0 0-.56 1.907 26.972 26.972 0 0 0-.169 3.417 26.779 26.779 0 0 0 .169 3.4 5.018 5.018 0 0 0 .576 1.924 1.791 1.791 0 0 0 1.034.856 5.558 5.558 0 0 0 1.594.2 4.038 4.038 0 0 0 1.306-.187 2.064 2.064 0 0 0 .9-.593 2.972 2.972 0 0 0 .551-1.094 8.7 8.7 0 0 0 .28-1.653h1.9a10.238 10.238 0 0 1-.322 1.967 4.932 4.932 0 0 1-.8 1.68 3.95 3.95 0 0 1-1.475 1.173 5.359 5.359 0 0 1-2.306.436 7.984 7.984 0 0 1-2.586-.356 3.256 3.256 0 0 1-1.653-1.271 6.1 6.1 0 0 1-.882-2.475 25.558 25.558 0 0 1-.254-3.985" transform="translate(-91.038 -15.727)" style="stroke:#25a1ef;stroke-width:.85px;fill:#25a1ef"/>
        <path data-name="패스 3279" d="M205.418 51.723v-1.034a8.315 8.315 0 0 1-1.645.975 4.3 4.3 0 0 1-1.746.365 3.7 3.7 0 0 1-1.458-.254 2.475 2.475 0 0 1-.966-.712 2.933 2.933 0 0 1-.534-1.144 5.375 5.375 0 0 1-.127-1.483 3.849 3.849 0 0 1 .466-1.832 3.338 3.338 0 0 1 1.263-1.221 6.37 6.37 0 0 1 2.009-.7 17.775 17.775 0 0 1 2.738-.28v-.949a6.19 6.19 0 0 0-.077-1.026 1.906 1.906 0 0 0-.3-.771 1.371 1.371 0 0 0-.619-.467 2.821 2.821 0 0 0-1.043-.161 2.126 2.126 0 0 0-1.4.441 2.473 2.473 0 0 0-.721 1.543h-1.95a4.329 4.329 0 0 1 .407-1.569 2.788 2.788 0 0 1 .865-1.026 3.456 3.456 0 0 1 1.255-.568 6.8 6.8 0 0 1 1.61-.178 5.921 5.921 0 0 1 1.874.255 3.323 3.323 0 0 1 1.212.678 2.414 2.414 0 0 1 .653.975 3.347 3.347 0 0 1 .2 1.128v9.02zm-2.967-1.051a3.758 3.758 0 0 0 1.4-.288 8.944 8.944 0 0 0 1.569-.848v-3.7a18.6 18.6 0 0 0-1.874.179 5.135 5.135 0 0 0-1.416.4 2.187 2.187 0 0 0-.907.771 2.22 2.22 0 0 0-.314 1.229 2.981 2.981 0 0 0 .356 1.755 1.383 1.383 0 0 0 1.187.5" transform="translate(-104.694 -20.032)" style="stroke:#25a1ef;stroke-width:.85px;fill:#25a1ef"/>
        <path data-name="패스 3280" d="m224.229 40.048-.016 1a8.259 8.259 0 0 1 1.746-.981 4.56 4.56 0 0 1 1.679-.327 3.865 3.865 0 0 1 1.246.2 3.2 3.2 0 0 1 1.059.593 3.056 3.056 0 0 1 .738 1.009 3.326 3.326 0 0 1 .28 1.416v8.8h-1.967v-8.589a2.015 2.015 0 0 0-.457-1.384 1.727 1.727 0 0 0-1.368-.518 3.9 3.9 0 0 0-1.462.288 9.483 9.483 0 0 0-1.479.764v9.442h-1.967V40.048z" transform="translate(-117.062 -20.07)" style="stroke:#25a1ef;stroke-width:.85px;fill:#25a1ef"/>
        <g data-name="그룹 584">
            <path data-name="패스 3281" d="M254.816 31.729h8.868v2.2h-1.272v10.856h1.272v2.2h-8.868v-2.2h1.272V33.933h-1.272zm3.713 13.056h1.442V33.933h-1.442zm7.206-13.056h2.442v15.26h-2.442z" transform="translate(-134.322 -15.823)" style="fill:#333"/>
            <path data-name="패스 3282" d="M302.173 22.707a3.18 3.18 0 0 1 1.215-1.288 3.964 3.964 0 0 1 3.088-.322.306.306 0 0 0 .238-.017 3.038 3.038 0 0 1 .47-.19 6.272 6.272 0 0 1 2.192-.078v.022l-.176.145a2.173 2.173 0 0 0-.735.985c-.054.161-.094.31.1.408.018.009.03.029.045.044a5.568 5.568 0 0 1 1 6.394l-.007.013-.07.138a.341.341 0 0 1-.062.086 3.475 3.475 0 0 1-1.2 1.1h-.006a5.685 5.685 0 0 1-2.287.916.437.437 0 0 1 .059-.041 3.8 3.8 0 0 0 .822-.44 1.66 1.66 0 0 0 .77-1.019 2.491 2.491 0 0 0-.15-1.624 2.142 2.142 0 0 0-.506-.664 2.673 2.673 0 0 0-.362-.269c-.07-.043-.358-.254-.436-.228a.171.171 0 0 1 .039-.013c.034 0 .068 0 .1.005a2.183 2.183 0 0 1 1.1.451c.2.152.393.324.6.474a.731.731 0 0 0 1.063-.126 1.509 1.509 0 0 0 .344-.794 1.563 1.563 0 0 0-1.591-1.885 1.087 1.087 0 0 0-1.121 1.11c0 .108.011.216.018.348a2.313 2.313 0 0 1-.788-1.927l-.16-.016a7.543 7.543 0 0 1-1.925-.388 3.671 3.671 0 0 1-1.651-1.143c-.041-.051-.07-.09-.029-.166" transform="translate(-159.42 -10.003)" style="fill:#333"/>
            <path data-name="패스 3283" d="M310.539 42.5v3.512h2.442v-4.29c-.082.037-.154.079-.241.113a7.13 7.13 0 0 1-2.2.665" transform="translate(-163.866 -21.122)" style="fill:#333"/>
            <path data-name="패스 3284" d="M299.683 53.28a2.949 2.949 0 0 0-1.1-.483 6.066 6.066 0 0 0-1.3-.135h-6.528a6.056 6.056 0 0 0-1.3.135 2.939 2.939 0 0 0-1.1.483 2.448 2.448 0 0 0-.772.949 4.3 4.3 0 0 0 0 3.095 2.192 2.192 0 0 0 .772.907 2.958 2.958 0 0 0 1.111.424 7.4 7.4 0 0 0 1.288.11h6.528a7.412 7.412 0 0 0 1.289-.11 2.967 2.967 0 0 0 1.111-.424 2.19 2.19 0 0 0 .771-.907 4.293 4.293 0 0 0 0-3.095 2.446 2.446 0 0 0-.771-.949m-2.247 3.281H290.6q-.864 0-.864-.814a.872.872 0 0 1 .228-.678.924.924 0 0 1 .636-.2h6.834a.923.923 0 0 1 .636.2.87.87 0 0 1 .229.678q0 .813-.864.814" transform="translate(-151.543 -26.921)" style="fill:#333"/>
            <path data-name="패스 3285" d="m291.542 35.255 1.865 5.46h2.577l-3.205-8.986h-2.458l-3.2 8.986h2.577z" transform="translate(-151.448 -15.822)" style="fill:#333"/>
        </g>
        <path data-name="패스 3287" d="M43.949 76.933a4.631 4.631 0 0 0-4.311-.822 11.122 11.122 0 0 0-2.494 1.03 10.418 10.418 0 0 1-3.023 1.086 6.841 6.841 0 0 1-4.475-.772 13.3 13.3 0 0 0-3.571-1.4 7.82 7.82 0 0 0-4.7.738 24.863 24.863 0 0 1-3.794 1.561 7.015 7.015 0 0 1-5-.5 5.8 5.8 0 0 0-3.649-.772 2.861 2.861 0 0 0-1.7.942c.043.035.074.075.087.07a4.924 4.924 0 0 1 3.925.36 24.137 24.137 0 0 0 3.233 1.425 8.293 8.293 0 0 0 5.7-.782 15.768 15.768 0 0 1 3.213-1.187 9.323 9.323 0 0 1 5.285.71 20.339 20.339 0 0 0 2.585.949 7.422 7.422 0 0 0 5.4-.966 56.12 56.12 0 0 0 1.592-.886 6.219 6.219 0 0 1 5.66-.732q.021-.025.041-.052" transform="translate(-3.052 -39.251)" style="fill:#25a1ef"/>
        <path data-name="패스 3290" d="M40.484 69.009a6.584 6.584 0 0 0-7.339-1.56 8.679 8.679 0 0 0-1.29.567 6.742 6.742 0 0 1-6.458.068 24.409 24.409 0 0 0-3.09-1.32 8.646 8.646 0 0 0-6.774.7c-.639.339-1.27.7-1.915 1.023A5.54 5.54 0 0 1 8.4 68.5a9.166 9.166 0 0 0-3.623-1.044A5.07 5.07 0 0 0 0 69.925a5.977 5.977 0 0 1 1.963-.887 7.852 7.852 0 0 1 5.3.848 10.85 10.85 0 0 0 2.934 1.1 6.945 6.945 0 0 0 4.6-.848 22.473 22.473 0 0 0 1.515-.85 6.724 6.724 0 0 1 6.54-.379 30.933 30.933 0 0 0 3.915 1.6 6.457 6.457 0 0 0 5.368-.719 10.956 10.956 0 0 1 3.224-1.4 6.716 6.716 0 0 1 4.6.5c.146.069.3.125.45.187a1 1 0 0 1 .072-.076" transform="translate(.782 -34.191)" style="fill:#25a1ef"/>
        <g data-name="그룹 585">
            <path data-name="패스 3286" d="M48.214 7.257c.008.063 0 .13.057.178a3.4 3.4 0 0 0 .265.908l.117.6a21.155 21.155 0 0 1 .462 2.637c0 .1.024.24.2.165h.123l.24-.009.12-.014a11.743 11.743 0 0 0 2.149-.325c.435-.081.869-.168 1.306-.239.161-.026.206-.068.125-.227-.453-.9-.919-1.793-1.455-2.646a.192.192 0 0 0-.1-.137.126.126 0 0 0-.071-.119l-.063-.111-.054-.08-.062-.105a.652.652 0 0 0-.213-.319l-.008-.014a1.147 1.147 0 0 0-.073-.164 30.439 30.439 0 0 0-2.925-3.824A26.19 26.19 0 0 0 44.783.1a.325.325 0 0 0-.3-.1 20.2 20.2 0 0 1 2.979 5.249c.265.663.5 1.338.747 2.008" transform="translate(-20.805)" style="fill:#333"/>
            <path data-name="패스 3288" d="M54.435 26.69c-.52.194-.47.117-.409.66a3.932 3.932 0 0 1 .014.394q.014 1.122.025 2.243 0 .151-.007.3l-.006.06a2.916 2.916 0 0 1-.037.6c-.094.357.094.4.372.419a21.85 21.85 0 0 0 5.839-.548c.172-.038.192-.114.145-.272-.117-.393-.23-.786-.353-1.177a16.153 16.153 0 0 0-.553-1.65v.005a.632.632 0 0 0-.132-.332 15.6 15.6 0 0 0-.809-2.051c-.153-.364-.158-.353-.523-.185-1.175.542-2.353 1.075-3.566 1.528m4.539 1.016a.838.838 0 0 0-.007.093l.056.131-.056-.131a.838.838 0 0 1 .007-.093" transform="translate(-25.843 -13.281)" style="fill:#333"/>
            <path data-name="패스 3289" d="m56.614 38.3-.016.008a.6.6 0 0 0-.288.125 1.252 1.252 0 0 0-.2.052 26.209 26.209 0 0 1-4.778 1.483c-.444.1-.445.095-.477.56-.186.451-.244.937-.39 1.4-.24.765-.465 1.535-.75 2.285a5.478 5.478 0 0 1-.925 1.777l.21-.059a69.964 69.964 0 0 0 5.136-1.717 25.8 25.8 0 0 0 3.611-1.556 1 1 0 0 0 .536-.905 14.732 14.732 0 0 0-.125-2.031 6.242 6.242 0 0 0-.2-1.209l-.019-.073a.8.8 0 0 0-.251-.124.8.8 0 0 1 .251.124c-.027-.148-.061-.3-.08-.444-.024-.19-.1-.24-.281-.151-.315.156-.636.3-.954.451" transform="translate(-23.082 -20.045)" style="fill:#333"/>
            <path data-name="패스 3291" d="m51.193 45.653-1.038.641c-1.895 1.058-3.8 2.1-5.791 2.968-.731.321-1.461.646-2.2.949-1.819.745-3.674 1.393-5.543 2l-.086.028h-.009a.406.406 0 0 0-.258.075c-.057.013-.123.007-.159.07l-.011-.016-.553.163c-.233.025-.44.182-.65.21-.679.091-1.317.332-1.979.479-.955.211-1.9.445-2.866.618a3.941 3.941 0 0 0-1.3.276 4.12 4.12 0 0 0-1.1 1.239l-.778 1.363c.162-.063.324-.134.486-.216.391-.2.777-.408 1.162-.618l.735-.4a9.751 9.751 0 0 1 7.619-.784 17.727 17.727 0 0 1 2.526 1.049c.238.113.475.225.714.334a7.39 7.39 0 0 0 2.136.643 5.545 5.545 0 0 0 .7.047 5.074 5.074 0 0 0 .684-.047 5.333 5.333 0 0 0 1.924-.667 9.8 9.8 0 0 1 1.455-.644c.153-.056.306-.1.459-.147-.006-.024-.011-.055-.023-.066l-.014-.014c-1.351-3.073 1.937-7.406 3.249-8.955a7.14 7.14 0 0 0 .512-.579" transform="translate(-13.467 -23.205)" style="fill:#333"/>
            <path data-name="패스 3292" d="M18.8 13.647c-.222-.561-.475-1.11-.715-1.664-.029-.066-.068-.115-.154-.068a.678.678 0 0 1-.145.041c-.085-.158-.085-.158.15-.3-.194-.409-.382-.823-.586-1.228a37.553 37.553 0 0 0-.812-1.554 62.468 62.468 0 0 0-1.121-1.907 18.971 18.971 0 0 0-.86-1.294q-.567-.774-1.181-1.511a14.051 14.051 0 0 0-2.91-2.669A8.556 8.556 0 0 0 7.729.226a7.443 7.443 0 0 0-3.65 0A7.829 7.829 0 0 0 1.3 1.545c-.43.32-.809.71-1.209 1.07a.9.9 0 0 0-.091.12c.282-.2.544-.4.807-.585a10.186 10.186 0 0 1 1.705-.982 7.534 7.534 0 0 1 4.953-.45 6.016 6.016 0 0 1 1.39.552 9.177 9.177 0 0 1 1.62 1.058 14.625 14.625 0 0 1 1.786 1.766c.491.576.932 1.186 1.366 1.8a29.333 29.333 0 0 1 1.922 3.276c.027.051.046.105.081.186a1.415 1.415 0 0 0-1.485.262 1.307 1.307 0 0 0-.461.921 1.367 1.367 0 0 0 1.077 1.476 1.389 1.389 0 0 0 1.667-.967c.063.132.117.238.164.346q.123.284.239.571c.034.084.077.115.163.062a.349.349 0 0 1 .147-.054c.038 0 .107.02.112.044a.162.162 0 0 1-.03.14 1.506 1.506 0 0 1-.25.128c.135.34.273.665.4 1 .162.435.319.872.48 1.308l1.14-.453c-.064-.162-.125-.326-.189-.488" transform="rotate(11 -56.466 54.088)" style="fill:#333"/>
            <g data-name="그룹 586">
                <path data-name="패스 3293" d="M8.154 13.778c-2.305-1.012-2.817-2.688-2.028-4.424l.83.956a1.99 1.99 0 0 0 .186-1.248 7.787 7.787 0 0 0-.24-.874A1.061 1.061 0 0 1 7 7.353a16.672 16.672 0 0 0 .884-2.084A5.223 5.223 0 0 0 6.715.139.3.3 0 0 0 6.327.03a7.98 7.98 0 0 0-4.405 3.676.415.415 0 0 1-.374.244c-.342.025-.684.06-1.022.117a.363.363 0 0 0-.255.187 5.093 5.093 0 0 0 .008 3.3 2.788 2.788 0 0 0 .444.784 1.781 1.781 0 0 1 .361.806 7.863 7.863 0 0 0 5.415 6.1 4.533 4.533 0 0 0 5.22-1.877 7.782 7.782 0 0 0 .826-1.7 2.416 2.416 0 0 0-.213-2.1 1.079 1.079 0 0 1-.053-.152 2.471 2.471 0 0 1 1.7 1.722 2.154 2.154 0 0 0-.8-2.061 2.308 2.308 0 0 0-2.326-.351 6.3 6.3 0 0 1 .556 2.329 3.908 3.908 0 0 1-5.508 3.635A7.485 7.485 0 0 1 1.58 6.193 8.02 8.02 0 0 1 5.842.664a.367.367 0 0 1 .332.043 3.518 3.518 0 0 1 1.238 2.661 7.293 7.293 0 0 1-.823 3.556 23 23 0 0 0-1.167 2.653 3.077 3.077 0 0 0 .87 3.5 3.03 3.03 0 0 0 1.863.7" style="fill:#333" transform="rotate(11 -65.655 21.793)"/>
                <path data-name="패스 3294" d="M3.1.55A2.316 2.316 0 0 1 0 0a1.767 1.767 0 0 0 1.554 1.463A1.544 1.544 0 0 0 3.1.55" transform="rotate(11 -88.143 36.424)" style="fill:#333"/>
                <path data-name="패스 3295" d="M.178.749A.4.4 0 0 0 .756.637a.4.4 0 0 0-.11-.56.4.4 0 0 0-.577.118.4.4 0 0 0 .109.554" transform="rotate(11 -80.29 43.307)" style="fill:#333"/>
            </g>
        </g>
        <path data-name="사각형 1993" style="fill:none" d="M0 0h150v39.854H0z" transform="translate(.782 1)"/>
    </g>
</svg>
