<svg xmlns="http://www.w3.org/2000/svg" width="140" height="140" viewBox="0 0 140 140">
    <path data-name="사각형 1997" style="fill:none;opacity:.415" d="M0 0h140v140H0z"/>
    <g data-name="그룹 427">
        <g data-name="그룹 436">
            <g data-name="그룹 438">
                <path data-name="패스 3116" d="M46.555 52.555A35.6 35.6 0 0 1 11 17h3.232a32.323 32.323 0 1 0 64.645 0h3.233a35.6 35.6 0 0 1-35.555 35.555" transform="translate(21.777 40.962)" style="fill:#fff"/>
                <path data-name="사각형 1873" transform="rotate(-74.936 101.961 40.798)" style="fill:#fff" d="M0 0h43.516v3.233H0z"/>
                <path data-name="사각형 1874" transform="rotate(-14.036 397.436 -299.656)" style="fill:#fff" d="M0 0h3.23v26.654H0z"/>
                <path data-name="패스 3117" d="M46.555 53.171A35.6 35.6 0 0 1 11 17.616V16h71.11v1.616a35.6 35.6 0 0 1-35.555 35.555M14.271 19.232a32.323 32.323 0 0 0 64.566 0z" transform="translate(21.777 40.346)" style="fill:#fff"/>
                <path data-name="패스 3118" d="M53.7 69.394a9.7 9.7 0 1 1 9.7-9.7 9.707 9.707 0 0 1-9.7 9.7m0-16.161a6.465 6.465 0 1 0 6.461 6.467 6.471 6.471 0 0 0-6.461-6.468" transform="translate(42.11 61.294)" style="fill:#fff"/>
                <path data-name="패스 3119" d="M52.232 56.616a1.616 1.616 0 1 0-1.616 1.616 1.617 1.617 0 0 0 1.616-1.616" transform="translate(45.19 64.375)" style="fill:#fff"/>
                <path data-name="사각형 1875" transform="translate(45.706 99.982)" style="fill:#fff" d="M0 0h43.635v3.232H0z"/>
                <path data-name="사각형 1876" transform="translate(23.081 70.891)" style="fill:#fff" d="M0 0h14.545v3.232H0z"/>
                <path data-name="패스 3121" d="M4.848 32.7A4.848 4.848 0 1 1 9.7 27.848 4.854 4.854 0 0 1 4.848 32.7m0-6.465a1.616 1.616 0 1 0 1.616 1.616 1.617 1.617 0 0 0-1.616-1.616" transform="translate(15 44.659)" style="fill:#fff"/>
                <path data-name="사각형 1878" transform="translate(29.545 56.346)" style="fill:#fff" d="M0 0h77.574v3.232H0z"/>
                <path data-name="사각형 1879" transform="translate(36.01 64.427)" style="fill:#fff" d="M0 0h53.332v3.232H0z"/>
                <path data-name="사각형 1880" transform="translate(92.574 64.427)" style="fill:#fff" d="M0 0h8.081v3.232H0z"/>
            </g>
            <g data-name="그룹 435">
                <path data-name="사각형 1867" style="fill:#fa8928" d="M0 0h3.232v22.626H0z" transform="translate(42.526 30.488)"/>
                <path data-name="사각형 1868" transform="translate(52.221 30.488)" style="fill:#fa8928" d="M0 0h3.232v22.626H0z"/>
                <path data-name="사각형 1869" transform="translate(61.918 30.488)" style="fill:#fa8928" d="M0 0h3.232v22.626H0z"/>
                <path data-name="사각형 1870" transform="translate(71.616 30.488)" style="fill:#fa8928" d="M0 0h3.232v22.626H0z"/>
                <path data-name="사각형 1871" transform="translate(81.311 30.488)" style="fill:#fa8928" d="M0 0h3.232v22.626H0z"/>
                <path data-name="사각형 1872" transform="translate(91.008 30.488)" style="fill:#fa8928" d="M0 0h3.232v22.626H0z"/>
            </g>
            <g data-name="그룹 437">
                <path data-name="패스 3120" d="M26.81 22.626a4.8 4.8 0 0 1-3.845-7.685 3.492 3.492 0 0 0 .7-2.1V9.787a3.483 3.483 0 0 0-.7-2.1 4.8 4.8 0 1 1 7.843-5.547 15.194 15.194 0 0 1 2.557 8.448v1.452a15.194 15.194 0 0 1-2.557 8.448 4.8 4.8 0 0 1-4 2.138m0-19.394a1.572 1.572 0 0 0-1.259 2.515 6.774 6.774 0 0 1 1.351 4.04v3.051a6.784 6.784 0 0 1-1.346 4.04 1.542 1.542 0 0 0-.149 1.647 1.625 1.625 0 0 0 2.713.168 11.949 11.949 0 0 0 2.014-6.654v-1.453a11.949 11.949 0 0 0-2.014-6.654 1.571 1.571 0 0 0-1.307-.7" transform="translate(28.555 30.488)" style="fill:#fff"/>
                <path data-name="패스 3122" d="M36.728 13.7h-9.7v-3.235h9.7a1.616 1.616 0 1 0 0-3.232h-9.7V4h9.7a4.848 4.848 0 0 1 0 9.7" transform="translate(31.655 32.953)" style="fill:#fff"/>
                <path data-name="사각형 1877" transform="translate(71.615 40.185)" style="fill:#fff" d="M0 0h19.394v3.232H0z"/>
                <path data-name="패스 3123" d="M60.576 13.7H46.031V4h14.545a4.848 4.848 0 0 1 0 9.7m-11.313-3.235h11.313a1.616 1.616 0 0 0 0-3.232H49.263z" transform="translate(43.361 32.953)" style="fill:#fff"/>
            </g>
        </g>
    </g>
</svg>
