<svg xmlns="http://www.w3.org/2000/svg" width="140" height="140" viewBox="0 0 140 140">
    <defs>
        <clipPath id="1clin0z4ja">
            <path data-name="사각형 2000" style="fill:none" d="M0 0h88.46v103.643H0z"/>
        </clipPath>
    </defs>
    <path data-name="사각형 1999" style="opacity:.415;fill:none" d="M0 0h140v140H0z"/>
    <g data-name="그룹 568">
        <g data-name="그룹 567" transform="translate(25.295 28.917)" style="clip-path:url(#1clin0z4ja)">
            <path data-name="패스 3301" d="M54.748 19.163a4.792 4.792 0 0 0 .566-.643 4.7 4.7 0 0 0-1.049-6.564 7.4 7.4 0 0 1-1.849-1.856c-1.581-2.331-1.439-5.49-1.2-7.2 1.679.413 4.658 1.438 6.209 3.724a10.033 10.033 0 0 1 1.342 6.333 1.328 1.328 0 0 0 1.166 1.483 1.3 1.3 0 0 0 .571.023 1.33 1.33 0 0 0 1.054-.971 10 10 0 0 1 3.523-5.345c2.331-1.577 5.488-1.44 7.2-1.2-.418 1.681-1.453 4.667-3.776 6.243a7.453 7.453 0 0 1-2.442 1.05 4.689 4.689 0 0 0-3.092 6.5 43.151 43.151 0 0 1 3.533 11.7h2.687a45.579 45.579 0 0 0-3.8-12.813 2.028 2.028 0 0 1 .988-2.687 1.984 1.984 0 0 1 .323-.117 10.1 10.1 0 0 0 3.288-1.424c4.352-2.95 5.151-9.1 5.182-9.355a1.333 1.333 0 0 0-.982-1.451c-.255-.066-6.25-1.6-10.665 1.4a12.589 12.589 0 0 0-2.458 2.5 12.939 12.939 0 0 0-1.4-3.294C56.713.838 50.569.042 50.31.01a1.345 1.345 0 0 0-1.449.982c-.067.254-1.6 6.252 1.358 10.614a10.045 10.045 0 0 0 2.5 2.518 2.026 2.026 0 0 1 .446 2.824 2.073 2.073 0 0 1-.25.284 47.217 47.217 0 0 0-6.882 8.18q.893 1.086 1.715 2.27a43.835 43.835 0 0 1 7-8.519" transform="translate(2.998)" style="fill:#fa8928"/>
            <path data-name="패스 3302" d="M49.184 26.924q-.82-1.182-1.715-2.271A48.809 48.809 0 0 0 29.76 11.736a1.33 1.33 0 0 0-1.7.676 49.709 49.709 0 0 0-4.088 19.262h2.689a48.336 48.336 0 0 1 3.31-16.93c2.939 1.386 10.643 5.484 16.015 12.374.607.78 1.186 1.59 1.722 2.441.431.684.841 1.386 1.215 2.115h2.964a30.352 30.352 0 0 0-2.705-4.751" transform="translate(1.561 .758)" style="fill:#fff"/>
            <path data-name="패스 3303" d="M87.128 36.354h-4.35a7.228 7.228 0 0 0-7.109-5.9H12.787a7.244 7.244 0 0 0-7.107 5.9H1.331A1.331 1.331 0 0 0 0 37.685c0 7.784 4.338 14.89 11.449 20.25l4.45 34.9a10.117 10.117 0 0 0 10.015 8.819h36.633a10.118 10.118 0 0 0 10.011-8.814l4.45-34.9C84.12 52.576 88.46 45.471 88.46 37.685a1.331 1.331 0 0 0-1.331-1.331M2.711 39.017h2.966A7.177 7.177 0 0 0 7.671 42.8 7.255 7.255 0 0 0 9.7 44.226v.049l1.262 9.894C6.136 49.9 3.12 44.683 2.711 39.017M69.917 92.5a7.452 7.452 0 0 1-7.372 6.5h-36.63a7.45 7.45 0 0 1-7.374-6.5l-4.15-32.55a49.855 49.855 0 0 0 11.943 5.336 5.846 5.846 0 0 0 5.718 7.12h24.357a5.862 5.862 0 0 0 5.3-3.388 5.731 5.731 0 0 0 .324-.862q.08-.281.133-.573a5.61 5.61 0 0 0 .072-.555c.013-.159.024-.318.024-.48 0-.111-.011-.22-.017-.33a5.853 5.853 0 0 0-.124-.933c.427-.129.855-.256 1.275-.394.257-.085.506-.179.761-.266.171-.06.344-.119.514-.181s.345-.117.516-.18c.251-.093.5-.193.746-.289a47.91 47.91 0 0 0 8.129-4.025zm-41.06-25.947a3.233 3.233 0 0 1 .054-.54 3.232 3.232 0 0 1 3.141-2.655H56.431a3.225 3.225 0 0 1 3.119 2.653 3.273 3.273 0 0 1 .053.525v.015a3.575 3.575 0 0 1-.279 1.294 3.262 3.262 0 0 1-.291.52 3.218 3.218 0 0 1-.729.743 3.165 3.165 0 0 1-1.9.638H32.052a3.2 3.2 0 0 1-3.2-3.2M64.529 61.7c-.257.095-.512.192-.773.284-.178.063-.356.125-.536.185l-.553.182c-.268.088-.535.18-.807.265-.3.092-.6.177-.895.264a5.881 5.881 0 0 0-2.038-1.607 5.812 5.812 0 0 0-2.519-.578H32.052a5.851 5.851 0 0 0-4.558 2.186 45.916 45.916 0 0 1-13.54-6.352l-1.482-11.623c.105.005.209.016.314.016H56.1a1.331 1.331 0 0 0 0-2.663H12.786a4.527 4.527 0 0 1-.5-.049 4.28 4.28 0 0 1-2.56-1.145c-.056-.051-.121-.091-.176-.145a4.843 4.843 0 0 1-1.34-3.233 4.491 4.491 0 0 1 .222-1.334 4.567 4.567 0 0 1 4.352-3.24H75.67a4.569 4.569 0 0 1 3.054 7.95 4.6 4.6 0 0 1-1.248.82 4.541 4.541 0 0 1-1.314.325 4.406 4.406 0 0 1-.491.05h-10.44a1.331 1.331 0 1 0 0 2.663H75.67c.107 0 .21-.012.315-.016L74.5 56.528a43.976 43.976 0 0 1-9.971 5.172m12.96-7.528 1.262-9.9v-.054a7.248 7.248 0 0 0 4.022-5.2h2.973c-.41 5.667-3.427 10.886-8.26 15.154" transform="translate(0 1.983)" style="fill:#fff"/>
        </g>
    </g>
</svg>
