<svg xmlns="http://www.w3.org/2000/svg" width="140" height="140" viewBox="0 0 140 140">
    <path data-name="사각형 1996" style="fill:none;opacity:.415" d="M0 0h140v140H0z"/>
    <g data-name="그룹 445">
        <g data-name="그룹 444">
            <path data-name="패스 3146" d="M96.3 87a1.449 1.449 0 1 0 .649 1.943A1.448 1.448 0 0 0 96.3 87" transform="translate(14.627 17.892)" style="fill:#fa8928"/>
            <path data-name="패스 3147" d="m91.312 102.419-.463-1.889c8.606-.661 23.43-3.582 26.57-5.281l2.622 2.516c-5.126 2.775-26.329 5.71-28.728 5.894" transform="translate(6.309 18.305)" style="fill:#fa8928"/>
            <path data-name="패스 3148" d="M2.464 115.5a2.145 2.145 0 0 1-1.844-1.062c-1.687-2.727 1-13.158 1.723-14.6.625-1.26 2.711-2.711 4.657-3.854a14.31 14.31 0 0 1-4.454-3.071C.548 90.556.092 81.662 0 78.993a1.58 1.58 0 0 1 .43-1.135c1.342-1.418 3.038-1.077 18.053 8.506.912.582 1.724 1.1 2.387 1.518 1.285.133 6.3-1.529 8.222-2.512a19.6 19.6 0 0 0-1.836-3.96c-1.664-3.048-3.1-5.679-1.864-7.59.657-1.013 1.868-1.457 3.578-1.327 1.274.1 10.829 2.573 15.612 5.876 4.854.039 18.1.578 29.839 1.056 8.283.338 15.437.628 17.67.661a20.947 20.947 0 0 1 9.32 2.32c.827.413 1.85 1 2.932 1.625 2.331 1.343 5.233 3.014 7.076 3.422 1 .221 2.185.411 3.443.615 4.681.751 8.379 1.347 8.154 4.066-.219 2.657-3.41 3.05-7.1 3.5l-.747.092c-3.49.441-12.827.038-13.224.022l.137-3.145c.094 0 9.463.408 12.693 0l.756-.093c1.051-.13 2.346-.29 3.284-.492-1.272-.338-3.156-.64-4.451-.848-1.246-.2-2.537-.408-3.624-.649-2.315-.513-5.317-2.242-7.966-3.768-1.042-.6-2.024-1.166-2.768-1.536a17.878 17.878 0 0 0-7.962-1.988c-2.274-.034-9.446-.325-17.751-.664-11.546-.47-25.913-1.055-30.221-1.055a1.58 1.58 0 0 1-.944-.314c-3.929-2.948-13.377-5.476-14.4-5.571a3.256 3.256 0 0 0-.641 0 18.949 18.949 0 0 0 1.937 4.27c1.671 3.062 3.566 6.534.916 8.051-.083.047-9.021 4.3-11.616 2.672-.689-.432-1.553-.984-2.529-1.607-3.3-2.108-10.314-6.584-13.543-8.1.278 4.45.951 9.075 1.7 9.958 1.1 1.3 4.393 2.8 6.206 3.443a1.575 1.575 0 0 1 .18 2.893c-2.906 1.45-5.791 3.331-6.174 4.025-.679 1.359-2.164 8.547-1.964 10.989 3.109-.981 10.344-7.032 13.587-9.744 1.252-1.047 2.24-1.874 2.87-2.346 1.979-1.492 12.768.188 16.836.937v3.02c-4.358-.8-13.968-1.9-15.01-1.4-.5.382-1.509 1.226-2.677 2.2-6.69 5.595-12.97 10.614-16.341 10.614z" transform="translate(10 17.186)" style="fill:#fa8928"/>
            <path data-name="패스 3155" d="M58.161 105.174a38.109 38.109 0 0 1-7.4-.68l.759-3.072a40.469 40.469 0 0 0 15.463-.295l.759 3.071a48.776 48.776 0 0 1-9.579.976" transform="translate(12.493 18.594)" style="fill:#fa8928"/>
            <path data-name="패스 3156" d="m36.922 86.2-1.746-2.62a47.481 47.481 0 0 0 6.054-5.049l2.225 2.226a50.09 50.09 0 0 1-6.533 5.443" transform="translate(11.728 17.484)" style="fill:#fa8928"/>
        </g>
        <path data-name="패스 3135" d="M38.914 44.747a5.339 5.339 0 0 1-5.314-4.756l-.094-.845A4.637 4.637 0 0 1 38.114 34h.627v2.793h-.627a1.84 1.84 0 0 0-1.83 2.044l.093.846a2.551 2.551 0 0 0 2.537 2.27z" transform="translate(14.616 22.263)" style="fill:#fff"/>
        <path data-name="패스 3136" d="M79.839 44.747v-2.793a2.551 2.551 0 0 0 2.537-2.27l.093-.845a1.84 1.84 0 0 0-1.83-2.045h-.527V34h.527a4.637 4.637 0 0 1 4.608 5.147l-.094.844a5.339 5.339 0 0 1-5.313 4.756" transform="translate(11.417 22.263)" style="fill:#fff"/>
        <path data-name="패스 3137" d="m39 71.966-1-2.61c5.212-1.993 8.036-3.922 8.036-8.4V60.5h2.793v.461c0 6.684-5.075 9.185-9.831 11.005" transform="translate(14.304 20.435)" style="fill:#fff"/>
        <path data-name="패스 3138" d="M89.932 76.525a52.982 52.982 0 0 0-8.881-4.052c-5.087-1.847-11.419-4.149-11.419-11.6V59.3h2.793v1.573c0 5.108 3.792 6.868 9.58 8.97a55.451 55.451 0 0 1 9.347 4.274z" transform="translate(12.121 20.517)" style="fill:#fff"/>
        <path data-name="패스 3139" d="M59.291 48.758h-1.262a1.4 1.4 0 1 1 0-2.793h1.262a1.066 1.066 0 0 0 1.065-1.065v-6.629c0-4.5 2.124-6.177 4.112-6.24C65.443 32 69.048 32 69.2 32a1.4 1.4 0 0 1 0 2.793c-.037 0-3.713 0-4.645.03-.829.027-1.407 1.445-1.407 3.448V44.9a3.862 3.862 0 0 1-3.858 3.858" transform="translate(13.018 22.401)" style="fill:#fff"/>
        <path data-name="패스 3140" d="M57.74 63.161c-8.655 0-19.108-9.369-19.108-21v-9.885h2.793v9.881c0 10.087 8.926 18.211 16.315 18.211 6.927 0 17.2-7.513 17.2-17.892V29.25h2.793v13.226c0 11.459-10.937 20.685-19.994 20.685" transform="translate(14.26 22.591)" style="fill:#fff"/>
        <path data-name="패스 3141" d="M52.684 34.793h-4.655a1.4 1.4 0 1 1 0-2.793h4.655a1.4 1.4 0 0 1 0 2.793" transform="translate(13.708 22.401)" style="fill:#fff"/>
        <path data-name="패스 3157" d="M52.684 34.793h-4.655a1.4 1.4 0 1 1 0-2.793h4.655a1.4 1.4 0 0 1 0 2.793" transform="translate(22.553 43.066)" style="fill:#fff"/>
        <path data-name="패스 3142" d="M50.654 36.239a1.769 1.769 0 1 0 1.769 1.769 1.769 1.769 0 0 0-1.769-1.769" transform="translate(13.553 22.109)" style="fill:#fff"/>
        <path data-name="패스 3143" d="M67.673 36.239a1.769 1.769 0 1 0 1.769 1.769 1.769 1.769 0 0 0-1.769-1.769" transform="translate(12.378 22.109)" style="fill:#fff"/>
        <path data-name="패스 3149" d="M59.229 74.214c-6.1 0-12.412-1.311-16.052-3.911l1.623-2.274c6.106 4.362 22.072 4.588 27.117.383l1.788 2.145c-2.934 2.443-8.61 3.657-14.476 3.657" transform="translate(13.946 19.915)" style="fill:#fff"/>
        <path data-name="패스 3150" d="M83.109 27.93H31.9a1.4 1.4 0 0 1-1.051-2.315l6.278-7.173 2.658-12.618A7.368 7.368 0 0 1 46.963 0H68.05a7.368 7.368 0 0 1 7.178 5.824l2.655 12.617 6.277 7.173a1.4 1.4 0 0 1-1.051 2.315m-48.128-2.792h45.05L75.541 20a1.382 1.382 0 0 1-.315-.631L72.494 6.4a4.563 4.563 0 0 0-4.444-3.607H46.963A4.562 4.562 0 0 0 42.519 6.4l-2.377 11.29h29.392v2.793H39.055z" transform="translate(14.821 24.609)" style="fill:#fff"/>
        <path data-name="패스 3151" d="M88.9 106.681a23.76 23.76 0 0 1-2.523-1.289c-1.942-1.262-2.977-4.109-3.088-4.43a1.373 1.373 0 0 1-.075-.362 22.488 22.488 0 0 1 .26-5.108c-.493-.923-3.74-3.384-6.249-4.057l.723-2.7c2.693.722 8.922 4.358 8.3 7.155a18.566 18.566 0 0 0-.253 4.325 6.726 6.726 0 0 0 1.905 2.835c.391.253 1.436.749 2.186 1.1z" transform="translate(11.597 18.486)" style="fill:#fff"/>
        <path data-name="패스 3152" d="m76.26 110.583-2.711-1.9a16.737 16.737 0 0 1-4.71-1.5c-1.477-.91-7.815-7.981-8.157-12.072-.317-3.813 1.9-8.409 2-8.6a1.232 1.232 0 0 1 .066-.12 4.3 4.3 0 0 1 3.687-1.991 4.059 4.059 0 0 1 3.505 2l3.809 6.559 3.113 1.893-1.451 2.385-3.417-2.077a1.393 1.393 0 0 1-.482-.492l-3.987-6.866a1.3 1.3 0 0 0-1.127-.607 1.43 1.43 0 0 0-1.238.61c-.255.546-1.927 4.255-1.692 7.078.245 2.935 5.767 9.266 6.839 9.926a15.341 15.341 0 0 0 4.029 1.182 1.4 1.4 0 0 1 .568.234l2.963 2.081z" transform="translate(12.741 18.786)" style="fill:#fff"/>
        <path data-name="패스 3153" d="m30.672 111.47-1.935-2.015c.6-.573 1.424-1.377 1.718-1.748a6.772 6.772 0 0 0 .894-3.295 18.553 18.553 0 0 0-1.629-4.015c-1.494-2.445 3.235-7.89 5.553-9.441l1.553 2.322c-2.159 1.445-4.443 4.819-4.612 5.85a22.477 22.477 0 0 1 1.888 4.755 1.39 1.39 0 0 1 .046.367c0 .34-.068 3.368-1.5 5.187a23.911 23.911 0 0 1-1.976 2.032" transform="translate(14.943 18.333)" style="fill:#fff"/>
        <path data-name="패스 3154" d="m43.543 111.2-2.255-1.648 2.137-2.922a1.408 1.408 0 0 1 .462-.4 15.459 15.459 0 0 0 3.437-2.414c.8-.97 4-8.739 3.285-11.6-.6-2.419-2.948-5.206-3.873-6.155a1.451 1.451 0 0 0-1.374-.182 1.3 1.3 0 0 0-.871.937L42.922 94.6a1.408 1.408 0 0 1-.3.621l-2.568 3.067-2.14-1.798 2.34-2.794 1.5-7.434a4.058 4.058 0 0 1 2.678-3.018 4.212 4.212 0 0 1 4.133.7 1.346 1.346 0 0 1 .1.092c.152.153 3.732 3.791 4.657 7.5.992 3.983-2.737 12.718-3.844 14.054a16.8 16.8 0 0 1-3.975 2.934z" transform="translate(14.31 18.883)" style="fill:#fff"/>
    </g>
</svg>
