<svg xmlns="http://www.w3.org/2000/svg" width="140" height="140" viewBox="0 0 140 140">
    <path data-name="사각형 1998" style="fill:none;opacity:.415" d="M0 0h140v140H0z"/>
    <path data-name="패스 3131" d="M130.186 53.8H108.06a1.862 1.862 0 0 1-1.862-1.862V1.862a1.863 1.863 0 0 1 2.553-1.729c11.441 4.574 19.092 15.077 22.128 30.374a78.573 78.573 0 0 1 1.158 21.634 1.862 1.862 0 0 1-1.851 1.658m-20.264-3.724h18.537c.408-7.143.728-35.327-18.537-45.316z" transform="translate(-32.751 46.563)" style="fill:#fa8928"/>
    <path data-name="패스 3132" d="M59.035 64.05H31.178a1.862 1.862 0 0 1-1.55-2.893c6.2-9.333 26.562-39.9 28.091-41.43a1.862 1.862 0 0 1 3.181 1.317v41.144a1.862 1.862 0 0 1-1.862 1.862m-24.385-3.724h22.52V26.831c-5.014 7.287-14.831 21.946-22.52 33.495" transform="translate(8.334 36.312)" style="fill:#fff"/>
    <path data-name="패스 3133" d="M74.5 150.476H14.716a1.862 1.862 0 0 1-1.627-.957L.235 126.425a1.862 1.862 0 0 1 1.627-2.768h85.491a1.862 1.862 0 0 1 1.627 2.768l-12.855 23.094a1.86 1.86 0 0 1-1.627.957m-58.688-3.724H73.4l10.782-19.371H5.029z" transform="translate(24 -19.518)" style="fill:#fff"/>
</svg>
