<svg xmlns="http://www.w3.org/2000/svg" width="42.035" height="39.763" viewBox="0 0 42.035 39.763">
    <path data-name="패스 3131" d="M117.5 25.348h-10.425a.877.877 0 0 1-.877-.877V.877a.878.878 0 0 1 1.2-.815c5.391 2.155 9 7.1 10.426 14.311a37.021 37.021 0 0 1 .546 10.193.877.877 0 0 1-.872.781m-9.547-1.755h8.734c.192-3.366.343-16.645-8.734-21.351z" transform="translate(-82.901)" style="fill:#fa8928"/>
    <path data-name="패스 3132" d="M43.318 40.322H30.193a.877.877 0 0 1-.731-1.363c2.923-4.4 12.515-18.8 13.235-19.52a.877.877 0 0 1 1.5.62v19.386a.877.877 0 0 1-.877.877m-11.49-1.755h10.61V22.786c-2.362 3.433-6.988 10.34-10.61 15.781" transform="translate(-22.885 -14.974)" style="fill:#333"/>
    <path data-name="패스 3133" d="M35.1 136.293H6.933a.877.877 0 0 1-.767-.451L.111 124.961a.878.878 0 0 1 .766-1.3h40.28a.878.878 0 0 1 .767 1.3l-6.057 10.881a.876.876 0 0 1-.766.451m-27.652-1.755h27.136l5.08-9.127H2.37z" transform="translate(0 -96.53)" style="fill:#333"/>
</svg>
