<svg xmlns="http://www.w3.org/2000/svg" width="26.246" height="18.279" viewBox="0 0 26.246 18.279">
    <g data-name="phishing text">
        <path data-name="패스 3296" d="M0 4.468h7.684v1.91h-1.1v9.4h1.1v1.91H-.001v-1.91h1.1v-9.4h-1.1zm3.218 11.314h1.25v-9.4h-1.25zM9.462 4.468h2.116v13.224H9.462z"/>
        <path data-name="패스 3297" d="M19.288 1.693A2.755 2.755 0 0 1 20.341.577a3.435 3.435 0 0 1 2.676-.279.265.265 0 0 0 .206-.015 2.633 2.633 0 0 1 .407-.165 5.435 5.435 0 0 1 1.9-.068v.019l-.153.126a1.883 1.883 0 0 0-.637.854c-.046.139-.082.269.087.353.015.008.026.025.039.038a4.825 4.825 0 0 1 .866 5.541l-.006.011-.061.119a.3.3 0 0 1-.054.074 3.011 3.011 0 0 1-1.041.955 4.927 4.927 0 0 1-1.982.793.379.379 0 0 1 .051-.036 3.291 3.291 0 0 0 .712-.381 1.438 1.438 0 0 0 .667-.883 2.159 2.159 0 0 0-.13-1.407 1.857 1.857 0 0 0-.439-.576 2.315 2.315 0 0 0-.314-.233c-.06-.037-.311-.22-.377-.2a.148.148 0 0 1 .034-.011h.088a1.891 1.891 0 0 1 .957.39c.177.131.34.281.518.411a.634.634 0 0 0 .921-.11 1.308 1.308 0 0 0 .3-.688 1.354 1.354 0 0 0-1.379-1.633.942.942 0 0 0-.966.96c0 .094.009.187.015.3a2 2 0 0 1-.683-1.67l-.139-.013a6.537 6.537 0 0 1-1.668-.336 3.181 3.181 0 0 1-1.431-.991c-.035-.044-.061-.078-.025-.144"/>
        <path data-name="패스 3298" d="M22.685 9.213v3.043h2.116V8.537c-.071.032-.134.068-.209.1a6.178 6.178 0 0 1-1.906.576"/>
        <path data-name="패스 3299" d="M23.956 13.528a2.555 2.555 0 0 0-.955-.419 5.257 5.257 0 0 0-1.124-.117H16.22a5.247 5.247 0 0 0-1.124.117 2.547 2.547 0 0 0-.955.419 2.121 2.121 0 0 0-.669.823 3.726 3.726 0 0 0 0 2.682 1.9 1.9 0 0 0 .669.786 2.564 2.564 0 0 0 .962.367 6.41 6.41 0 0 0 1.116.1h5.657a6.422 6.422 0 0 0 1.117-.1 2.571 2.571 0 0 0 .962-.367 1.9 1.9 0 0 0 .668-.786 3.721 3.721 0 0 0 0-2.682 2.119 2.119 0 0 0-.668-.823m-1.947 2.843h-5.922q-.749 0-.749-.705a.755.755 0 0 1 .2-.588.8.8 0 0 1 .551-.176h5.922a.8.8 0 0 1 .551.176.754.754 0 0 1 .2.588q0 .7-.749.705"/>
        <path data-name="패스 3300" d="m16.984 7.524 1.616 4.731h2.233l-2.777-7.787h-2.13l-2.777 7.787h2.233z"/>
    </g>
</svg>
